<?xml version="1.0" encoding="UTF-8"?>
<svg version="1.1" xmlns="http://www.w3.org/2000/svg" width="500" height="500">
<path d="M0 0 C0.33 7.26 0.66 14.52 1 22 C2.98 22.495 2.98 22.495 5 23 C6.65079442 21.34920558 6.22549447 19.36263821 6.31640625 17.08984375 C6.35830078 16.10048828 6.40019531 15.11113281 6.44335938 14.09179688 C6.48267578 13.05087891 6.52199219 12.00996094 6.5625 10.9375 C6.62727539 9.37032227 6.62727539 9.37032227 6.69335938 7.77148438 C6.79981225 5.18113116 6.9018276 2.59067814 7 0 C15.88661278 -2.47862769 25.82368719 0.99745157 34.3125 3.875 C35.43338013 4.24153687 35.43338013 4.24153687 36.5769043 4.61547852 C38.67578125 5.3671875 38.67578125 5.3671875 42 7 C42.82250977 8.88354492 42.82250977 8.88354492 43 11 C41.62975585 13.60929472 40.23539916 15.98595485 38.625 18.4375 C34.73645128 24.27367056 34.73645128 24.27367056 33 31 C35.37378703 31.32903515 35.37378703 31.32903515 38 31 C39.73752774 29.36170179 39.73752774 29.36170179 41 27.0625 C41.49757813 26.25039063 41.99515625 25.43828125 42.5078125 24.6015625 C43.00023437 23.74304688 43.49265625 22.88453125 44 22 C44.49242187 21.14148438 44.98484375 20.28296875 45.4921875 19.3984375 C46.68425296 17.27696508 47.85330268 15.14625205 49 13 C58.92467397 14.80246321 69.06929295 26.54564758 74.625 34.4375 C76 37 76 37 76 40 C74.86820313 40.62648438 73.73640625 41.25296875 72.5703125 41.8984375 C71.08844357 42.72378222 69.60667809 43.54931272 68.125 44.375 C67.37863281 44.7875 66.63226563 45.2 65.86328125 45.625 C65.14785156 46.02460938 64.43242187 46.42421875 63.6953125 46.8359375 C63.03547363 47.20251465 62.37563477 47.5690918 61.69580078 47.94677734 C59.83480572 49.01345273 59.83480572 49.01345273 58 51 C58.3185177 53.10820797 58.3185177 53.10820797 59 55 C64.57072391 54.33323382 68.8806793 51.45907701 73.6484375 48.70703125 C75.39414175 47.73292828 77.19487072 46.85899255 79 46 C82 47 82 47 83.53515625 49.921875 C84.06123728 51.19101595 84.56927235 52.46773385 85.0625 53.75 C85.32562988 54.43175293 85.58875977 55.11350586 85.85986328 55.81591797 C93.55445216 76.59759516 91.98276474 102.56453405 82.8125 122.6015625 C79.70210056 128.43356144 75.98670179 133.73030508 72 139 C71.29101562 139.94746094 70.58203125 140.89492188 69.8515625 141.87109375 C69.24054688 142.57363281 68.62953125 143.27617187 68 144 C67.34 144 66.68 144 66 144 C65.75765625 144.58265625 65.5153125 145.1653125 65.265625 145.765625 C59.07658616 156.69195283 40.52574262 164.76278328 29 168 C5.68419127 174.2846579 -18.06525216 171.61770103 -39.25537109 160.01269531 C-43.20397789 157.72066886 -46.61247794 155.04291809 -50 152 C-50.80566406 151.33484375 -51.61132812 150.6696875 -52.44140625 149.984375 C-69.59152611 135.42641066 -79.38374684 115.15257345 -82 93 C-82.57664049 82.52066811 -81.72424869 73.17550424 -79 63 C-78.74863281 62.04867187 -78.49726563 61.09734375 -78.23828125 60.1171875 C-76.92594114 55.46497653 -75.34971846 51.25187151 -73 47 C-67.98505437 48.79852889 -63.58379213 51.53949299 -59.08398438 54.34179688 C-55.56902985 56.49871803 -55.56902985 56.49871803 -51.56640625 56.73828125 C-51.04949219 56.49464844 -50.53257812 56.25101562 -50 56 C-49.87525826 53.639375 -49.87525826 53.639375 -51 51 C-53.473739 49.1177067 -56.21760976 47.80718179 -59 46.4375 C-60.48541197 45.69862239 -61.96494796 44.94777915 -63.4375 44.18359375 C-64.09621094 43.85931396 -64.75492188 43.53503418 -65.43359375 43.20092773 C-67 42 -67 42 -67.8034668 40 C-68 38 -68 38 -66.70703125 35.81640625 C-65.76923828 34.70072266 -65.76923828 34.70072266 -64.8125 33.5625 C-64.20019531 32.82128906 -63.58789062 32.08007812 -62.95703125 31.31640625 C-62.31121094 30.55199219 -61.66539062 29.78757812 -61 29 C-60.37480469 28.17886719 -59.74960938 27.35773438 -59.10546875 26.51171875 C-56.78047301 23.7381153 -54.29911675 21.54158459 -51.5 19.25 C-50.09234375 18.08210938 -50.09234375 18.08210938 -48.65625 16.890625 C-46.20268456 15.14426372 -44.85125559 14.59363202 -42 14 C-41.72325439 14.50974365 -41.44650879 15.0194873 -41.16137695 15.54467773 C-39.89575494 17.85229781 -38.60464305 20.1446334 -37.3125 22.4375 C-36.87744141 23.23994141 -36.44238281 24.04238281 -35.99414062 24.86914062 C-33.52870335 29.49940097 -33.52870335 29.49940097 -29.16796875 32.03515625 C-28.09482422 32.01775391 -28.09482422 32.01775391 -27 32 C-27.45708972 26.24951641 -29.05970519 22.58333174 -32.125 17.75 C-33.52871865 15.52470689 -34.78214068 13.34158458 -36 11 C-35 8 -35 8 -32.21875 6.5 C-30.98614709 5.98303104 -29.74584089 5.4841976 -28.5 5 C-27.84161133 4.74017334 -27.18322266 4.48034668 -26.50488281 4.21264648 C-19.03870576 1.42026827 -7.75800045 -2.58600015 0 0 Z M-37 39 C-36.63500255 44.36878073 -35.23227681 47.88163096 -32.4375 52.4375 C-28.89064957 58.35269723 -25.7252925 64.3833327 -22.70288086 70.58178711 C-21.35154325 73.3416006 -20.00301128 75.99539205 -18.3203125 78.5703125 C-16.70426834 81.54421624 -16.48924509 83.95307138 -16.1875 87.3125 C-15.33027424 93.62025291 -13.59599983 97.58557053 -9 102 C-3.46435098 106.08583618 2.28344411 106.63642492 9 106 C15.7764107 103.74119643 20.857803 100.53088755 24.1953125 94.03515625 C26.28439005 88.75161544 26.72391285 84.34104074 25.03125 78.8671875 C22.34590061 72.79531415 19.6993333 68.67675149 13.52807617 65.95898438 C11.1433174 65.05436511 8.83215209 64.45273371 6.35546875 63.859375 C0.08022728 62.00461526 -4.40402047 58.37714608 -9.4375 54.3125 C-11.27961864 52.87067296 -13.12206326 51.4292623 -14.96484375 49.98828125 C-16.64345267 48.65913638 -18.32186018 47.32973709 -20 46 C-22.15212015 44.31139683 -24.31666588 42.64864005 -26.5 41 C-27.2734375 40.401875 -28.046875 39.80375 -28.84375 39.1875 C-31.38364742 37.78871592 -34.69441812 36.69441812 -37 39 Z M-50 122 C-50.54039553 124.28892317 -50.54039553 124.28892317 -50 127 C-48.242902 129.20900814 -46.59636992 131.02065227 -44.5625 132.9375 C-44.01190918 133.46746582 -43.46131836 133.99743164 -42.89404297 134.54345703 C-29.71316609 146.98844314 -14.1376995 152.71222547 3.9375 153.25 C5.62624272 153.19757171 7.31408823 153.11091525 9 153 C10.69382812 152.89751953 10.69382812 152.89751953 12.421875 152.79296875 C26.53285313 151.46091584 39.43599836 145.5537229 50 136 C50 135.34 50 134.68 50 134 C50.556875 133.79375 51.11375 133.5875 51.6875 133.375 C54.9777957 131.41860796 56.84332061 129.14258996 59 126 C58.70471707 123.34394268 58.70471707 123.34394268 58 121 C44.06620728 120.97666952 30.13241757 120.95908651 16.19860935 120.94818783 C9.7293232 120.94295832 3.26005011 120.93585944 -3.20922852 120.92456055 C-9.446703 120.91373408 -15.68416487 120.90772368 -21.92164803 120.90512276 C-24.30720277 120.90326807 -26.69275679 120.89964664 -29.0783062 120.89426994 C-32.40695591 120.88706271 -35.73555279 120.88600892 -39.06420898 120.88647461 C-40.06114273 120.88287933 -41.05807648 120.87928406 -42.08522034 120.87557983 C-42.98690948 120.8769545 -43.88859863 120.87832916 -44.81761169 120.87974548 C-45.9998112 120.87836279 -45.9998112 120.87836279 -47.20589352 120.87695217 C-49.02321568 120.80419345 -49.02321568 120.80419345 -50 122 Z " fill="#434695" transform="translate(270,252)"/>
<path d="M0 0 C2.96849389 2.74014821 4.22336757 4.68633528 4.7734375 8.703125 C4.99876644 24.83667729 -0.64229502 40.86969253 -9.5625 54.25 C-9.7730115 56.28016674 -9.7730115 56.28016674 -9.6171875 58.49609375 C-9.57585693 59.74350342 -9.57585693 59.74350342 -9.53369141 61.01611328 C-9.50194824 61.8976709 -9.47020508 62.77922852 -9.4375 63.6875 C-9.19939453 78.02247343 -13.37142648 89.9175669 -23.3125 100.5 C-28.41667456 105.33915011 -34.55610284 109.85193451 -41.5625 111.25 C-41.32853516 112.13751953 -41.32853516 112.13751953 -41.08984375 113.04296875 C-40.89519531 113.83316406 -40.70054687 114.62335938 -40.5 115.4375 C-40.30277344 116.21480469 -40.10554688 116.99210937 -39.90234375 117.79296875 C-39.50749912 120.64765001 -39.66762059 122.50805421 -40.5625 125.25 C-42.171875 127.13671875 -42.171875 127.13671875 -44.3125 128.9375 C-45.13234375 129.6284375 -45.9521875 130.319375 -46.796875 131.03125 C-51.35306301 134.68649688 -55.9691404 138.2569642 -60.62646484 141.78173828 C-63.60406599 144.03990894 -66.56986783 146.31344912 -69.53710938 148.58520508 C-72.8772607 151.14229043 -76.2198608 153.69616821 -79.5625 156.25 C-79.8925 155.26 -80.2225 154.27 -80.5625 153.25 C-79.6015625 151.4453125 -79.6015625 151.4453125 -78.1875 149.375 C-75.69663793 145.26608468 -75.34747851 142.4027301 -75.375 137.625 C-75.16130994 131.9021131 -75.16130994 131.9021131 -72.5 129.00390625 C-69.92566637 127.22255932 -67.33261358 125.70483828 -64.5625 124.25 C-59.75778953 121.07889109 -55.14117994 117.73630453 -50.5625 114.25 C-58.85644635 114.14867779 -64.01170853 115.61754816 -70.80078125 120.34375 C-78.00228356 125.31451821 -85.56935623 128.51417759 -94 130.6875 C-94.67442139 130.86369873 -95.34884277 131.03989746 -96.04370117 131.22143555 C-99.93700914 132.14303514 -102.74950183 132.45576776 -106.5625 131.25 C-109.04199219 129.2722168 -109.04199219 129.2722168 -111.609375 126.69921875 C-112.53621094 125.77302734 -113.46304688 124.84683594 -114.41796875 123.89257812 C-114.89282715 123.40732666 -115.36768555 122.9220752 -115.85693359 122.42211914 C-117.30964165 120.9404154 -118.78014797 119.47831387 -120.25390625 118.01757812 C-128.17314556 110.02634573 -128.17314556 110.02634573 -128.5625 106.25 C-126.51673199 90.05085741 -119.21041004 73.89791004 -107.5625 62.25 C-106.8787387 59.36282395 -106.8787387 59.36282395 -106.4375 56.125 C-106.26992187 55.02929688 -106.10234375 53.93359375 -105.9296875 52.8046875 C-105.74792969 51.54011719 -105.74792969 51.54011719 -105.5625 50.25 C-110.7053431 55.05681593 -114.85460719 60.12817022 -118.8125 65.9375 C-119.83814883 67.42084462 -120.86417811 68.90392627 -121.890625 70.38671875 C-122.3330957 71.03342529 -122.77556641 71.68013184 -123.23144531 72.34643555 C-123.67069336 72.97461182 -124.10994141 73.60278809 -124.5625 74.25 C-125.04992676 74.9807373 -125.53735352 75.71147461 -126.03955078 76.46435547 C-127.5625 78.25 -127.5625 78.25 -130.6015625 78.68359375 C-132.37660156 78.68552734 -132.37660156 78.68552734 -134.1875 78.6875 C-140.1548084 78.92223884 -143.93422546 79.90266746 -148.890625 83.19140625 C-150.5625 84.25 -150.5625 84.25 -152.5625 84.25 C-151.98059705 80.58647018 -150.5345926 78.84113413 -148 76.1875 C-144.96222262 72.88486303 -142.22884557 69.52979529 -139.625 65.875 C-136.13478667 60.97633443 -132.45643224 56.29628292 -128.55859375 51.71484375 C-126.57325224 49.40570549 -126.57325224 49.40570549 -125.41015625 47.19140625 C-124.4375 45.5 -124.4375 45.5 -121.5625 43.25 C-115.17576125 42.9431511 -108.72952473 43.47678424 -102.5625 45.25 C-102.0675 44.115625 -101.5725 42.98125 -101.0625 41.8125 C-95.50369981 30.73418442 -86.29442487 23.87020652 -75.06640625 19.2890625 C-71.04730848 18.09722303 -67.2852157 17.74898234 -63.125 17.4375 C-55.66744627 16.83683065 -50.90909829 14.62338169 -44.66796875 10.34375 C-33.23000277 2.63211508 -13.52441253 -6.64357107 0 0 Z " fill="#935AA3" transform="translate(339.5625,71.75)"/>
<path d="M0 0 C1.97801699 1.19662478 3.82121299 2.4794529 5.671875 3.86328125 C6.703125 4.56453125 7.734375 5.26578125 8.796875 5.98828125 C13.03334701 9.62285014 15.30783902 14.90735041 17.671875 19.86328125 C18.05085938 20.62253906 18.42984375 21.38179687 18.8203125 22.1640625 C21.54487152 30.80016471 20.89446503 42.67320265 16.93359375 50.76171875 C10.57766191 61.34837922 2.87215591 68.63013773 -9.328125 71.86328125 C-19.79147537 73.25419565 -30.61840854 72.37823864 -39.453125 66.23828125 C-40.77228226 65.14564595 -42.06344839 64.01853916 -43.328125 62.86328125 C-44.02035156 62.23679687 -44.71257812 61.6103125 -45.42578125 60.96484375 C-52.42039809 53.93100476 -56.44717448 44.64398653 -56.828125 34.67578125 C-56.18115122 24.52326956 -52.71260115 15.81695395 -46.328125 7.86328125 C-45.668125 7.86328125 -45.008125 7.86328125 -44.328125 7.86328125 C-44.328125 7.20328125 -44.328125 6.54328125 -44.328125 5.86328125 C-31.64239206 -5.09969783 -15.08178161 -7.36375579 0 0 Z " fill="#B497CA" transform="translate(299.328125,103.13671875)"/>
<path d="M0 0 C0.99 0 1.98 0 3 0 C3.07476562 1.08796875 3.14953125 2.1759375 3.2265625 3.296875 C4.04128274 13.02356913 5.78546944 20.54978638 11 29 C11.39960938 29.6703125 11.79921875 30.340625 12.2109375 31.03125 C13.62535169 33.28580495 14.58377056 34.79188528 17 36 C17 36.66 17 37.32 17 38 C17.66 38 18.32 38 19 38 C19 38.66 19 39.32 19 40 C20.11375 40.433125 20.11375 40.433125 21.25 40.875 C23.56739797 41.82302644 25.77917115 42.84845911 28 44 C28 44.66 28 45.32 28 46 C29.65 46 31.3 46 33 46 C33 46.66 33 47.32 33 48 C37.29 48.66 41.58 49.32 46 50 C44.51264741 54.46205777 41.32127789 55.58450902 37.375 57.875 C36.61243896 58.31900146 35.84987793 58.76300293 35.06420898 59.22045898 C28.00950488 63.20192793 20.91592738 66.18364527 13 68 C11.88226196 68.35396851 11.88226196 68.35396851 10.74194336 68.71508789 C7.85306688 69.38893933 5.92905086 69.5532446 3 69 C-0.84329907 66.40117892 -3.96695687 63.28422237 -7.09887695 59.89575195 C-8.56566308 58.30907839 -10.06726873 56.76344 -11.58007812 55.22070312 C-19.59971942 46.89902939 -19.59971942 46.89902939 -20 43 C-18.0458361 27.5262124 -11.20671951 11.20671951 0 0 Z " fill="#986CC1" transform="translate(231,135)"/>
<path d="M0 0 C2.91212588 1.41872799 4.65505829 2.26953519 6.0625 5.25 C5.98956825 8.45899698 4.90334906 10.15428085 3.23046875 12.83203125 C0.8718637 16.98766872 -0.63616693 21.50995391 -2.26416016 25.99072266 C-3.05882573 28.16062899 -3.87975486 30.31981409 -4.69921875 32.48046875 C-10.97305111 49.34363998 -15.66741083 66.92140294 -16 85 C-16.03867188 85.88816406 -16.07734375 86.77632813 -16.1171875 87.69140625 C-16.44373408 99.86433719 -14.8344692 112.44333588 -11 124 C-10.55140625 125.36705078 -10.55140625 125.36705078 -10.09375 126.76171875 C-8.45873197 131.48876684 -6.59266851 135.89187128 -4.25 140.3125 C-2.32892859 144.03051205 -1.25393515 146.73677228 -2 151 C-4 153 -4 153 -7.375 153.5 C-11 153 -11 153 -13.125 150.75 C-13.79521508 149.52364901 -14.41358958 148.26856132 -15 147 C-15.58201172 145.75863281 -15.58201172 145.75863281 -16.17578125 144.4921875 C-18.71726614 138.71680078 -20.791454 132.82407698 -22.6875 126.8125 C-22.88980225 126.17199707 -23.09210449 125.53149414 -23.30053711 124.87158203 C-27.25291205 111.96257565 -27.78766985 99.44834529 -28 86 C-28.01224609 85.26861816 -28.02449219 84.53723633 -28.03710938 83.78369141 C-28.14179799 63.19667482 -21.97508584 41.82386485 -14 23 C-13.45158447 21.66775391 -13.45158447 21.66775391 -12.89208984 20.30859375 C-11.74238639 17.52881473 -10.56507952 14.76271119 -9.375 12 C-9.01494873 11.1440625 -8.65489746 10.288125 -8.28393555 9.40625 C-6.25087463 4.84701258 -4.83552774 2.03601168 0 0 Z " fill="#4F4B95" transform="translate(173,238)"/>
<path d="M0 0 C2.96849389 2.74014821 4.22336757 4.68633528 4.7734375 8.703125 C4.99876644 24.83667729 -0.64229502 40.86969253 -9.5625 54.25 C-10.2225 54.25 -10.8825 54.25 -11.5625 54.25 C-11.78164063 53.64414063 -12.00078125 53.03828125 -12.2265625 52.4140625 C-16.95785791 39.91267219 -22.46885354 32.64576431 -33.5625 25.25 C-33.5625 24.59 -33.5625 23.93 -33.5625 23.25 C-34.635 22.981875 -35.7075 22.71375 -36.8125 22.4375 C-42.39583333 21.04166667 -47.97916667 19.64583333 -53.5625 18.25 C-50.39688718 10.36136058 -39.26724176 6.8930022 -31.9921875 3.640625 C-22.09272962 -0.3732782 -10.22423004 -5.02242879 0 0 Z " fill="#BA75C7" transform="translate(339.5625,71.75)"/>
<path d="M0 0 C-0.33 0.99 -0.66 1.98 -1 3 C-0.67 3.99 -0.34 4.98 0 6 C0 7.32 0 8.64 0 10 C0.27396339 14.8832006 0.27396339 14.8832006 2.625 19 C6.05391443 20.44375344 8.4324389 19.84324172 12 19 C12.99 18.34 13.98 17.68 15 17 C15.495 19.475 15.495 19.475 16 22 C14.02 22.66 12.04 23.32 10 24 C10 24.66 10 25.32 10 26 C7.28598706 27.35700647 5.15153684 27.1123861 2.1171875 27.09765625 C0.95058594 27.09443359 -0.21601563 27.09121094 -1.41796875 27.08789062 C-2.64128906 27.07951172 -3.86460937 27.07113281 -5.125 27.0625 C-6.35605469 27.05798828 -7.58710938 27.05347656 -8.85546875 27.04882812 C-11.90369392 27.0370133 -14.95182314 27.02054028 -18 27 C-18 28.32 -18 29.64 -18 31 C-14.96968967 32.51515517 -11.7013029 32.64824641 -8.375 33.0625 C-7.66859375 33.15337891 -6.9621875 33.24425781 -6.234375 33.33789062 C-4.4899959 33.56183119 -2.74504866 33.78133818 -1 34 C-1 34.66 -1 35.32 -1 36 C-1.66 36 -2.32 36 -3 36 C-3.2578125 36.52851563 -3.515625 37.05703125 -3.78125 37.6015625 C-4.69962906 39.4088854 -5.66657057 41.19165211 -6.65625 42.9609375 C-11.20710457 51.38773178 -13.28062078 58.33976481 -14 68 C-20.43692928 65.1901155 -24.60958545 59.86418729 -27.62890625 53.64453125 C-31.88281421 42.53104521 -32.43421723 33.14712943 -28 22 C-25.9274522 18.14275826 -23.74478755 14.41941003 -21 11 C-20.34 11 -19.68 11 -19 11 C-19 10.34 -19 9.68 -19 9 C-13.95415147 4.80680643 -6.78501326 0 0 0 Z " fill="#C3ABD5" transform="translate(274,100)"/>
<path d="M0 0 C26.73 0 53.46 0 81 0 C76.90601205 8.1879759 68.02682494 11.72148495 59.859375 15.0546875 C46.0365023 19.62454432 27.67280391 18.50285699 14.6015625 12.41796875 C8.88819525 9.47141193 3.68407941 6.41641773 -1 2 C-0.67 1.34 -0.34 0.68 0 0 Z " fill="#2B3C8B" transform="translate(234,380)"/>
<path d="M0 0 C16.83 0 33.66 0 51 0 C51.495 2.475 51.495 2.475 52 5 C48.63534351 7.00257868 45.81882805 7.33644992 41.9375 7.5625 C38.66820969 7.76051635 36.11608697 7.96130434 33 9 C32.50721765 16.48271042 34.01769587 21.52650082 37.0625 28.3125 C37.83442124 30.05410743 38.5965948 31.80007695 39.34765625 33.55078125 C39.85824585 34.69027222 39.85824585 34.69027222 40.37915039 35.8527832 C41.09082383 38.31411544 40.83667143 39.61188036 40 42 C38.02 42.495 38.02 42.495 36 43 C33.5253969 39.09859872 31.60893641 35.05741271 29.8125 30.8125 C29.53986328 30.18408203 29.26722656 29.55566406 28.98632812 28.90820312 C27 24.25352444 27 24.25352444 27 22 C23.92146345 22.6487796 23.92146345 22.6487796 22.98852539 24.84179688 C22.69453857 25.62619141 22.40055176 26.41058594 22.09765625 27.21875 C21.76443359 28.06824219 21.43121094 28.91773438 21.08789062 29.79296875 C20.40478579 31.59636551 19.72509097 33.40105765 19.04882812 35.20703125 C18.71431641 36.05652344 18.37980469 36.90601563 18.03515625 37.78125 C17.7400415 38.56564453 17.44492676 39.35003906 17.14086914 40.15820312 C16 42 16 42 13.99780273 42.88867188 C13.33852783 42.92541016 12.67925293 42.96214844 12 43 C11.34 42.34 10.68 41.68 10 41 C11.00148614 34.2121495 13.05808347 22.94191653 18 18 C18.07179964 16.48071962 18.08392007 14.95832518 18.0625 13.4375 C18.05347656 12.61121094 18.04445313 11.78492188 18.03515625 10.93359375 C18.02355469 10.29550781 18.01195312 9.65742188 18 9 C16.87980469 8.87882813 15.75960938 8.75765625 14.60546875 8.6328125 C13.13276364 8.46396733 11.66010996 8.29467303 10.1875 8.125 C9.44951172 8.04636719 8.71152344 7.96773437 7.95117188 7.88671875 C4.28493819 7.45539714 2.12048255 7.0803217 -1 5 C-0.67 3.35 -0.34 1.7 0 0 Z " fill="#874F9C" transform="translate(256,126)"/>
<path d="M0 0 C0.52980469 0.48082031 1.05960937 0.96164063 1.60546875 1.45703125 C1.60546875 2.11703125 1.60546875 2.77703125 1.60546875 3.45703125 C2.22421875 3.53953125 2.84296875 3.62203125 3.48046875 3.70703125 C5.60546875 4.45703125 5.60546875 4.45703125 6.60546875 6.26953125 C6.93546875 6.99140625 7.26546875 7.71328125 7.60546875 8.45703125 C8.22421875 9.01390625 8.84296875 9.57078125 9.48046875 10.14453125 C13.47838236 14.49520194 15.60546875 19.57442061 15.60546875 25.45703125 C16.26546875 25.45703125 16.92546875 25.45703125 17.60546875 25.45703125 C17.80412614 34.35246767 17.9399413 42.78613322 15.60546875 51.45703125 C14.94546875 51.45703125 14.28546875 51.45703125 13.60546875 51.45703125 C13.20328125 52.53984375 13.20328125 52.53984375 12.79296875 53.64453125 C11.60645513 56.45469508 10.33061236 58.94119682 8.60546875 61.45703125 C7.94546875 61.45703125 7.28546875 61.45703125 6.60546875 61.45703125 C6.39921875 62.03453125 6.19296875 62.61203125 5.98046875 63.20703125 C4.1206521 66.25036759 1.56002688 67.53014551 -1.39453125 69.45703125 C-1.39453125 70.11703125 -1.39453125 70.77703125 -1.39453125 71.45703125 C-3.06119792 72.12369792 -4.72786458 72.79036458 -6.39453125 73.45703125 C-7.19890625 73.80765625 -8.00328125 74.15828125 -8.83203125 74.51953125 C-14.54445168 76.60944116 -19.81878278 76.4876281 -25.76953125 76.01953125 C-26.50558594 75.96732422 -27.24164063 75.91511719 -28 75.86132812 C-29.79863754 75.73285402 -31.59666034 75.59582176 -33.39453125 75.45703125 C-33.39453125 74.46703125 -33.39453125 73.47703125 -33.39453125 72.45703125 C-31.65429688 72.43576172 -31.65429688 72.43576172 -29.87890625 72.4140625 C-16.685767 72.0842694 -6.18093625 70.12309946 3.69921875 60.63671875 C10.32238001 53.06351386 13.00115336 44.56176613 12.98046875 34.64453125 C12.97885742 33.84426514 12.97724609 33.04399902 12.97558594 32.21948242 C12.84948141 26.15471986 11.827789 21.65540851 8.60546875 16.45703125 C8.04859375 15.26078125 7.49171875 14.06453125 6.91796875 12.83203125 C2.31767363 5.11713943 -6.11631317 1.050208 -14.39453125 -1.54296875 C-17.36767593 -2.37185624 -17.36767593 -2.37185624 -20.39453125 -2.54296875 C-21.12027344 -2.60613281 -21.84601563 -2.66929688 -22.59375 -2.734375 C-31.98490516 -3.19140139 -39.88184869 0.01033639 -47.39453125 5.45703125 C-48.38453125 5.78703125 -49.37453125 6.11703125 -50.39453125 6.45703125 C-50.39453125 7.11703125 -50.39453125 7.77703125 -50.39453125 8.45703125 C-50.95140625 8.97265625 -51.50828125 9.48828125 -52.08203125 10.01953125 C-57.53474559 15.76698691 -60.41269231 22.65539213 -61.39453125 30.45703125 C-61.48992187 31.215 -61.5853125 31.97296875 -61.68359375 32.75390625 C-62.30514342 42.76412726 -58.58767683 52.4479889 -52.14453125 60.01953125 C-48.59177659 63.63752848 -45.0048707 66.23386317 -40.4375 68.421875 C-38.21183736 69.54960081 -36.35016702 70.91449607 -34.39453125 72.45703125 C-37.47590086 73.38421814 -39.01124372 73.59971493 -42.0703125 72.4609375 C-43.37548828 71.74744141 -43.37548828 71.74744141 -44.70703125 71.01953125 C-46.03154297 70.30990234 -46.03154297 70.30990234 -47.3828125 69.5859375 C-48.04667969 69.21339844 -48.71054687 68.84085937 -49.39453125 68.45703125 C-49.39453125 67.79703125 -49.39453125 67.13703125 -49.39453125 66.45703125 C-49.99265625 66.18890625 -50.59078125 65.92078125 -51.20703125 65.64453125 C-53.41272158 64.4471565 -54.83036312 63.41224141 -56.39453125 61.45703125 C-56.39453125 60.46703125 -56.39453125 59.47703125 -56.39453125 58.45703125 C-57.05453125 58.45703125 -57.71453125 58.45703125 -58.39453125 58.45703125 C-58.39453125 57.79703125 -58.39453125 57.13703125 -58.39453125 56.45703125 C-59.05453125 56.45703125 -59.71453125 56.45703125 -60.39453125 56.45703125 C-61.04289167 54.70796594 -61.68811909 52.95773906 -62.33203125 51.20703125 C-62.69167969 50.2325 -63.05132812 49.25796875 -63.421875 48.25390625 C-66.76146218 38.6509166 -66.60762846 27.51372021 -62.359375 18.18359375 C-61.13073352 15.86853295 -59.80627204 13.66483699 -58.39453125 11.45703125 C-57.95109375 10.74160156 -57.50765625 10.02617188 -57.05078125 9.2890625 C-53.36741556 3.83563496 -49.27314927 1.24216331 -43.39453125 -1.54296875 C-42.66363281 -1.92453125 -41.93273437 -2.30609375 -41.1796875 -2.69921875 C-28.10474744 -9.51669215 -12.36421317 -7.96715205 0 0 Z " fill="#87509B" transform="translate(305.39453125,102.54296875)"/>
<path d="M0 0 C0.99 0 1.98 0 3 0 C3.4125 0.515625 3.825 1.03125 4.25 1.5625 C4.8275 2.036875 5.405 2.51125 6 3 C8.33668753 2.69105509 10.66943327 2.35215658 13 2 C15.9518161 1.86258509 18.8990083 1.8831692 21.85351562 1.90234375 C22.71136154 1.90380402 23.56920746 1.90526428 24.45304871 1.9067688 C26.30490195 1.9105572 28.15675164 1.91665499 30.0085907 1.92483521 C32.94311244 1.93766111 35.87758868 1.94413031 38.81213379 1.94897461 C46.0982295 1.9623071 53.38428164 1.98653 60.67034912 2.01037598 C66.83497374 2.03013401 72.99958225 2.04576223 79.16423035 2.05593872 C82.04852207 2.0623987 84.9327468 2.07490566 87.8170166 2.08764648 C89.59350528 2.09128071 91.36999456 2.09463222 93.14648438 2.09765625 C94.3405616 2.10540573 94.3405616 2.10540573 95.5587616 2.11331177 C99.08766172 2.11364419 102.33174976 1.95119496 105.83850098 1.43530273 C109.47707662 0.93431193 111.64218375 1.60773473 115 3 C115 7.09875944 114.26708835 10.54538918 112 14 C110.04402816 15.39712274 108.04563599 16.73779907 106 18 C105.505 18.495 105.505 18.495 105 19 C105.99 19.99 106.98 20.98 108 22 C106.9375 23.5 106.9375 23.5 105 25 C98.86153846 25.43076923 98.86153846 25.43076923 96 24 C96 24.66 96 25.32 96 26 C94.70766393 27.37310707 93.37562854 28.71034824 92 30 C92.66 30.33 93.32 30.66 94 31 C93.05125 31.309375 92.1025 31.61875 91.125 31.9375 C88.13919592 32.87394742 88.13919592 32.87394742 86 34 C85.27840576 35.64363134 84.60648579 37.31050386 84 39 C82.20841511 39.02696365 80.41671527 39.04637917 78.625 39.0625 C77.12839844 39.07990234 77.12839844 39.07990234 75.6015625 39.09765625 C73 39 73 39 71 38 C69.824375 38.495 69.824375 38.495 68.625 39 C65.56952353 40.16399103 65.05116527 39.76942429 62 39 C59.81346552 38.9317561 57.62498454 38.91510255 55.4375 38.9375 C53.73400391 38.95103516 53.73400391 38.95103516 51.99609375 38.96484375 C50.51302734 38.98224609 50.51302734 38.98224609 49 39 C48.01 39 47.02 39 46 39 C45.05125 39.020625 44.1025 39.04125 43.125 39.0625 C40.26832614 39.00536652 37.77263649 38.65238506 35 38 C35 37.34 35 36.68 35 36 C34.01 36.66 33.02 37.32 32 38 C31.01 38.66 30.02 39.32 29 40 C28.7215625 38.329375 28.7215625 38.329375 28.4375 36.625 C27.963125 35.42875 27.48875 34.2325 27 33 C23.48599332 31.45913678 23.48599332 31.45913678 20 31 C20 30.34 20 29.68 20 29 C18.35 29.33 16.7 29.66 15 30 C14.69707031 29.4946875 14.39414063 28.989375 14.08203125 28.46875 C12.81585432 26.50520177 11.58981351 24.71442051 10 23 C7.28528995 22.41231617 7.28528995 22.41231617 5 23 C4.855625 22.21625 4.71125 21.4325 4.5625 20.625 C4.12201075 18.03578982 4.12201075 18.03578982 3 16 C2.01 16 1.02 16 0 16 C-1.625 14.5 -1.625 14.5 -3 13 C-3.33 13 -3.66 13 -4 13 C-4 11.02 -4 9.04 -4 7 C-3.34 7 -2.68 7 -2 7 C-2.66 5.35 -3.32 3.7 -4 2 C-3.34 1.67 -2.68 1.34 -2 1 C-1.34 1.33 -0.68 1.66 0 2 C0 1.34 0 0.68 0 0 Z M0 6 C-0.54039553 8.28892317 -0.54039553 8.28892317 0 11 C1.757098 13.20900814 3.40363008 15.02065227 5.4375 16.9375 C5.98809082 17.46746582 6.53868164 17.99743164 7.10595703 18.54345703 C20.28683391 30.98844314 35.8623005 36.71222547 53.9375 37.25 C55.62624272 37.19757171 57.31408823 37.11091525 59 37 C60.69382812 36.89751953 60.69382812 36.89751953 62.421875 36.79296875 C76.53285313 35.46091584 89.43599836 29.5537229 100 20 C100 19.34 100 18.68 100 18 C100.556875 17.79375 101.11375 17.5875 101.6875 17.375 C104.9777957 15.41860796 106.84332061 13.14258996 109 10 C108.70471707 7.34394268 108.70471707 7.34394268 108 5 C94.06620728 4.97666952 80.13241757 4.95908651 66.19860935 4.94818783 C59.7293232 4.94295832 53.26005011 4.93585944 46.79077148 4.92456055 C40.553297 4.91373408 34.31583513 4.90772368 28.07835197 4.90512276 C25.69279723 4.90326807 23.30724321 4.89964664 20.9216938 4.89426994 C17.59304409 4.88706271 14.26444721 4.88600892 10.93579102 4.88647461 C9.93885727 4.88287933 8.94192352 4.87928406 7.91477966 4.87557983 C7.01309052 4.8769545 6.11140137 4.87832916 5.18238831 4.87974548 C4.0001888 4.87836279 4.0001888 4.87836279 2.79410648 4.87695217 C0.97678432 4.80419345 0.97678432 4.80419345 0 6 Z " fill="#2A3A7E" transform="translate(220,368)"/>
<path d="M0 0 C5.55319935 1.78041506 9.65030034 5.39961635 14.12109375 9.01171875 C18.29789734 12.22398213 21.75571252 13.75273483 26.97412109 14.57885742 C31.27919658 15.47380262 34.13003137 17.95603765 36.875 21.25 C38.38804378 24.94855147 38.90193823 28.1223758 38 32 C35.98128153 35.56825467 33.73227814 39.13386093 30 41 C25.41180634 41.60110663 20.90526982 42.04707002 16.75390625 39.765625 C13.80740829 37.29081174 12.23356278 35.70068835 11 32 C11.01160156 31.31808594 11.02320313 30.63617188 11.03515625 29.93359375 C11.12502104 21.73022226 7.59822919 15.94786061 3.50610352 9.10717773 C3.05936279 8.36024658 2.61262207 7.61331543 2.15234375 6.84375 C1.73976318 6.17537109 1.32718262 5.50699219 0.90209961 4.81835938 C0 3 0 3 0 0 Z " fill="#424490" transform="translate(250,309)"/>
<path d="M0 0 C3.30078125 0.625 3.30078125 0.625 5.30078125 2.625 C4.9855994 6.05673834 3.62540841 7.57930112 1.12890625 9.83203125 C-2.83578479 13.62764584 -5.86725352 17.78884227 -8.94921875 22.3125 C-9.97486758 23.79584462 -11.00089686 25.27892627 -12.02734375 26.76171875 C-12.46981445 27.40842529 -12.91228516 28.05513184 -13.36816406 28.72143555 C-13.80741211 29.34961182 -14.24666016 29.97778809 -14.69921875 30.625 C-15.18664551 31.3557373 -15.67407227 32.08647461 -16.17626953 32.83935547 C-17.69921875 34.625 -17.69921875 34.625 -20.73828125 35.05859375 C-22.51332031 35.06052734 -22.51332031 35.06052734 -24.32421875 35.0625 C-30.29152715 35.29723884 -34.07094421 36.27766746 -39.02734375 39.56640625 C-40.69921875 40.625 -40.69921875 40.625 -42.69921875 40.625 C-42.1173158 36.96147018 -40.67131135 35.21613413 -38.13671875 32.5625 C-35.09894137 29.25986303 -32.36556432 25.90479529 -29.76171875 22.25 C-26.27150542 17.35133443 -22.59315099 12.67128292 -18.6953125 8.08984375 C-16.70997099 5.78070549 -16.70997099 5.78070549 -15.546875 3.56640625 C-12.2204268 -2.21814022 -5.67313355 -0.62074257 0 0 Z " fill="#A870C2" transform="translate(229.69921875,115.375)"/>
<path d="M0 0 C0.36708396 1.39249204 0.71806563 2.78923333 1.0625 4.1875 C1.35833984 5.35345703 1.35833984 5.35345703 1.66015625 6.54296875 C2.05500088 9.39765001 1.89487941 11.25805421 1 14 C-0.609375 15.88671875 -0.609375 15.88671875 -2.75 17.6875 C-3.56984375 18.3784375 -4.3896875 19.069375 -5.234375 19.78125 C-9.79056301 23.43649688 -14.4066404 27.0069642 -19.06396484 30.53173828 C-22.04156599 32.78990894 -25.00736783 35.06344912 -27.97460938 37.33520508 C-31.3147607 39.89229043 -34.6573608 42.44616821 -38 45 C-38.495 43.515 -38.495 43.515 -39 42 C-38.0390625 40.1953125 -38.0390625 40.1953125 -36.625 38.125 C-34.13413793 34.01608468 -33.78497851 31.1527301 -33.8125 26.375 C-33.59880994 20.6521131 -33.59880994 20.6521131 -30.9375 17.75390625 C-28.36316637 15.97255932 -25.77011358 14.45483828 -23 13 C-14.42687116 8.05888345 -14.42687116 8.05888345 -8 1 C-5.07175348 0.02391783 -3.04386724 -0.08226668 0 0 Z " fill="#8867B9" transform="translate(298,183)"/>
<path d="M0 0 C2.3125 1.9375 2.3125 1.9375 3.375 4.1875 C3.30206825 7.39649698 2.21584906 9.09178085 0.54296875 11.76953125 C-2.16011834 16.53211327 -3.82870246 21.80112437 -5.6875 26.9375 C-5.97061035 27.71448242 -6.2537207 28.49146484 -6.54541016 29.29199219 C-10.09169757 39.0666012 -13.51367752 48.75158894 -15.6875 58.9375 C-23.6875 58.9375 -23.6875 58.9375 -25.6875 57.9375 C-25.55472656 57.1640625 -25.42195312 56.390625 -25.28515625 55.59375 C-25.02025391 54.03140625 -25.02025391 54.03140625 -24.75 52.4375 C-24.57597656 51.4165625 -24.40195313 50.395625 -24.22265625 49.34375 C-23.84803814 46.95931939 -23.56227426 44.56001688 -23.34375 42.15625 C-22.72549027 37.13341437 -20.96538121 32.62648257 -19.125 27.9375 C-18.77147461 27.02701904 -18.41794922 26.11653809 -18.05371094 25.1784668 C-15.71665443 19.27125169 -13.21750062 13.46249352 -10.4375 7.75 C-9.96268188 6.75323242 -9.96268188 6.75323242 -9.47827148 5.73632812 C-8.1448161 3.09947691 -7.03806862 1.19065163 -4.62109375 -0.5546875 C-2.6875 -1.0625 -2.6875 -1.0625 0 0 Z " fill="#5D529E" transform="translate(175.6875,239.0625)"/>
<path d="M0 0 C0.33 0 0.66 0 1 0 C1.268125 1.051875 1.53625 2.10375 1.8125 3.1875 C1.99683594 3.909375 2.18117187 4.63125 2.37109375 5.375 C2.83821947 7.32474213 3.2610572 9.28520466 3.66015625 11.25 C3.89605469 12.384375 4.13195312 13.51875 4.375 14.6875 C4.69597656 16.30205078 4.69597656 16.30205078 5.0234375 17.94921875 C6.11617603 21.36293393 7.65615951 23.32264861 10 26 C11.94061113 29.7841917 12.19672506 32.77041116 12 37 C14.07553648 37.5534764 15.84365964 38 18 38 C18 38.99 18 39.98 18 41 C18.66 41.66 19.32 42.32 20 43 C19.625 44.9375 19.625 44.9375 19 47 C19 47.99 19 48.98 19 50 C20.485 50.495 20.485 50.495 22 51 C24 53 24 53 25 55 C26.485 54.505 26.485 54.505 28 54 C27.67 54.99 27.34 55.98 27 57 C29.41086944 60.24220373 30.74218142 61.74914292 34.78125 62.5546875 C37.52538928 62.78808079 40.24676404 62.94696043 43 63 C42.67 64.65 42.34 66.3 42 68 C43.65 68.33 45.3 68.66 47 69 C47.33 69.99 47.66 70.98 48 72 C50.00016466 73.20882096 50.00016466 73.20882096 52 74 C52 74.66 52 75.32 52 76 C53.258125 76.165 54.51625 76.33 55.8125 76.5 C56.52019531 76.5928125 57.22789062 76.685625 57.95703125 76.78125 C60.15471706 77.053233 60.15471706 77.053233 63 77 C63.33 77.66 63.66 78.32 64 79 C65.0725 78.79375 66.145 78.5875 67.25 78.375 C71.0768168 77.99231832 71.88361731 78.13017039 75 80 C79.2565042 81.13246442 83.44106053 81.11688154 87.8125 81.0625 C88.85180664 81.05573242 88.85180664 81.05573242 89.91210938 81.04882812 C91.60811068 81.03713156 93.30406703 81.01919924 95 81 C95.495 79.515 95.495 79.515 96 78 C96.66 78.66 97.32 79.32 98 80 C97.67 80.66 97.34 81.32 97 82 C97.99 82 98.98 82 100 82 C100.495 80.515 100.495 80.515 101 79 C105.12190068 76.77194558 105.12190068 76.77194558 107.91015625 77.49609375 C111.44833605 78.34922495 114.68995304 77.38903757 118 76 C119.16666667 74.08333333 119.16666667 74.08333333 120 72 C122.70335361 70.41324897 125.12608699 69.19975154 128.1875 68.5 C130.55528526 67.84681786 131.500168 66.92835543 133 65 C133.71447643 62.89667109 133.71447643 62.89667109 134 61 C134.66 61.33 135.32 61.66 136 62 C136 62.66 136 63.32 136 64 C137.65 63.34 139.3 62.68 141 62 C140.9690625 60.081875 140.9690625 60.081875 140.9375 58.125 C140.875 54.25 140.875 54.25 142 52 C142.66 52 143.32 52 144 52 C144 52.66 144 53.32 144 54 C146.02045442 53.39816251 148.02111039 52.72693904 150 52 C150.33 51.34 150.66 50.68 151 50 C150.34 49.67 149.68 49.34 149 49 C150.1875 47.4375 150.1875 47.4375 152 46 C154.6875 46.3125 154.6875 46.3125 157 47 C151.85046729 54.81308411 151.85046729 54.81308411 150 57 C149.34 57 148.68 57 148 57 C147.63648438 57.87398438 147.63648438 57.87398438 147.265625 58.765625 C141.07658616 69.69195283 122.52574262 77.76278328 111 81 C87.68419127 87.2846579 63.93474784 84.61770103 42.74462891 73.01269531 C38.79602211 70.72066886 35.38752206 68.04291809 32 65 C31.19433594 64.33484375 30.38867188 63.6696875 29.55859375 62.984375 C13.56035869 49.40419379 3.03331871 30.03121652 0.54296875 9.171875 C0.29463995 6.11246417 0.10345184 3.06734712 0 0 Z " fill="#2A3C83" transform="translate(188,339)"/>
<path d="M0 0 C10.711422 -0.63984158 21.51833513 0.98744567 30 8 C31.93474965 9.92055834 33.4075473 11.76061339 35 14 C35 14.66 35 15.32 35 16 C32.08124982 17.32670463 29.7055201 18.03680999 26.5 18.4375 C22.88963687 19.01773693 21.07248687 20.14033689 18 22 C15.1875 22.1875 15.1875 22.1875 13 22 C13 21.01 13 20.02 13 19 C12.484375 19.515625 11.96875 20.03125 11.4375 20.5625 C9 22 9 22 5.5 22 C2 21 2 21 -0.4375 18.875 C-2.37091925 15.31750858 -2.21451842 13.00434376 -2 9 C-2.28520405 7.32442621 -2.59955696 5.65182755 -3 4 C-2.34 3.67 -1.68 3.34 -1 3 C-0.67 2.01 -0.34 1.02 0 0 Z " fill="#C3AAD6" transform="translate(275,99)"/>
<path d="M0 0 C0.33 0 0.66 0 1 0 C1.10957031 1.09957031 1.21914062 2.19914062 1.33203125 3.33203125 C2.22073815 11.79873992 3.30727853 19.8844367 6 28 C6.2990625 28.91136719 6.598125 29.82273437 6.90625 30.76171875 C8.54126803 35.48876684 10.40733149 39.89187128 12.75 44.3125 C14.67107141 48.03051205 15.74606485 50.73677228 15 55 C13 57 13 57 9.625 57.5 C6 57 6 57 3.875 54.75 C0.03740306 47.76360558 -2.67704184 40.1048564 -5.375 32.625 C-5.71273437 31.68914062 -6.05046875 30.75328125 -6.3984375 29.7890625 C-7.09754878 26.54772838 -6.65568602 24.22453811 -6 21 C-6.165 20.175 -6.33 19.35 -6.5 18.5 C-7.11284573 15.43577133 -6.63530488 13.03534554 -6 10 C-4.35 10.33 -2.7 10.66 -1 11 C-1.01160156 10.28972656 -1.02320313 9.57945312 -1.03515625 8.84765625 C-1.04869141 7.46900391 -1.04869141 7.46900391 -1.0625 6.0625 C-1.07410156 5.14597656 -1.08570313 4.22945313 -1.09765625 3.28515625 C-1 1 -1 1 0 0 Z " fill="#343F8A" transform="translate(156,334)"/>
<path d="M0 0 C4.8665386 0.41713188 6.79230533 2.45465326 10 6 C10.598125 6.556875 11.19625 7.11375 11.8125 7.6875 C13 9 13 9 13 11 C13.556875 11.226875 14.11375 11.45375 14.6875 11.6875 C17.65855185 13.37377267 19.64522125 15.530354 22 18 C22.845625 18.845625 23.69125 19.69125 24.5625 20.5625 C25.366875 21.366875 26.17125 22.17125 27 23 C27.78375 23.680625 28.5675 24.36125 29.375 25.0625 C31 27 31 27 31.0625 29 C29.5910522 31.7697841 27.51990799 33.19083529 25 35 C20.94514988 33.37272063 18.15687046 30.49705049 15.10546875 27.4765625 C14.55385574 26.93397797 14.00224274 26.39139343 13.43391418 25.83236694 C12.27395509 24.6868779 11.1167551 23.53858899 9.9621582 22.38769531 C8.18821438 20.62570956 6.39646964 18.88323584 4.60351562 17.140625 C3.47802286 16.02458982 2.35363443 14.9074396 1.23046875 13.7890625 C0.6910112 13.26913727 0.15155365 12.74921204 -0.4042511 12.21353149 C-1.88208008 10.71728516 -1.88208008 10.71728516 -4 8 C-3.88407663 4.58682596 -2.13062172 2.59380036 0 0 Z " fill="#906BBC" transform="translate(201,184)"/>
<path d="M0 0 C1.17919922 1.54467773 1.17919922 1.54467773 2.3046875 3.68359375 C2.72363281 4.44607422 3.14257812 5.20855469 3.57421875 5.99414062 C4.43806392 7.61676871 5.2974802 9.24176276 6.15234375 10.86914062 C8.51608725 15.50519334 8.51608725 15.50519334 12.8203125 18.03515625 C13.89925781 18.01775391 13.89925781 18.01775391 15 18 C14.52465605 13.1514917 13.57523072 10.09695796 11 6 C11.33 5.34 11.66 4.68 12 4 C12.66 5.32 13.32 6.64 14 8 C15.32 7.34 16.64 6.68 18 6 C20.47682859 9.71524288 20.43538538 12.69638294 20 17 C19 20 19 20 18 22 C17.34 22 16.68 22 16 22 C16.474375 22.598125 16.94875 23.19625 17.4375 23.8125 C19 26 19 26 20 29 C16 29 16 29 13.5625 27 C10.69277458 24.7602143 9.53376748 24.59614086 6 25 C6.32577631 32.16707877 9.65443628 37.76927124 13 44 C11.515 44.495 11.515 44.495 10 45 C9.34 44.34 8.68 43.68 8 43 C7.01 43.495 7.01 43.495 6 44 C6.33 42.02 6.66 40.04 7 38 C6.34 37.67 5.68 37.34 5 37 C4.33203125 34.453125 4.33203125 34.453125 3.8125 31.25 C3.54373047 29.67992187 3.54373047 29.67992187 3.26953125 28.078125 C3.00872278 25.0996167 3.24919405 22.87542705 4 20 C4.66 20.33 5.32 20.66 6 21 C6 19.35 6 17.7 6 16 C5.34 16 4.68 16 4 16 C4 15.01 4 14.02 4 13 C3.01 13.33 2.02 13.66 1 14 C1 13.34 1 12.68 1 12 C0.34 12 -0.32 12 -1 12 C-1.33 11.67 -1.66 11.34 -2 11 C-2.99 11.66 -3.98 12.32 -5 13 C-5.66 12.67 -6.32 12.34 -7 12 C-9.09821215 12.39938767 -9.09821215 12.39938767 -11 13 C-11.765625 10.76953125 -11.765625 10.76953125 -12 8 C-10.234375 5.76171875 -10.234375 5.76171875 -7.75 3.6875 C-6.94046875 2.99011719 -6.1309375 2.29273438 -5.296875 1.57421875 C-3 0 -3 0 0 0 Z " fill="#594F94" transform="translate(228,266)"/>
<path d="M0 0 C0.99 0 1.98 0 3 0 C3.4125 0.515625 3.825 1.03125 4.25 1.5625 C4.8275 2.036875 5.405 2.51125 6 3 C8.33711894 2.6943358 10.66985002 2.35490365 13 2 C15.85440242 1.8555375 18.70463638 1.86305815 21.56225586 1.87060547 C22.80272423 1.86797699 22.80272423 1.86797699 24.06825256 1.86529541 C26.78380473 1.86091828 29.49929099 1.86380054 32.21484375 1.8671875 C34.11381543 1.86651321 36.01278703 1.86554214 37.91175842 1.86428833 C41.88510971 1.86281691 45.85843845 1.86494782 49.83178711 1.86962891 C54.91008012 1.87532195 59.98832022 1.87204634 65.06661129 1.86605644 C68.98637791 1.86243252 72.90613212 1.8635979 76.82589912 1.86618423 C78.69768849 1.86684864 80.56947899 1.86604218 82.44126701 1.86370468 C85.06365798 1.86114847 87.68596486 1.86506054 90.30834961 1.87060547 C91.4549556 1.86756912 91.4549556 1.86756912 92.62472534 1.86447144 C97.49634157 1.88343228 102.19468731 2.15764987 107 3 C107.495 3.99 107.495 3.99 108 5 C72.69 5.33 37.38 5.66 1 6 C0.47255833 10.93085054 0.47255833 10.93085054 3.1875 13.67578125 C4.5796875 14.98095703 4.5796875 14.98095703 6 16.3125 C7.3921875 17.63701172 7.3921875 17.63701172 8.8125 18.98828125 C9.534375 19.65214844 10.25625 20.31601562 11 21 C10.67 21.66 10.34 22.32 10 23 C8.35 23 6.7 23 5 23 C4.855625 22.21625 4.71125 21.4325 4.5625 20.625 C4.12201075 18.03578982 4.12201075 18.03578982 3 16 C2.01 16 1.02 16 0 16 C-1.625 14.5 -1.625 14.5 -3 13 C-3.33 13 -3.66 13 -4 13 C-4 11.02 -4 9.04 -4 7 C-3.34 7 -2.68 7 -2 7 C-2.66 5.35 -3.32 3.7 -4 2 C-3.34 1.67 -2.68 1.34 -2 1 C-1.34 1.33 -0.68 1.66 0 2 C0 1.34 0 0.68 0 0 Z " fill="#37426D" transform="translate(220,368)"/>
<path d="M0 0 C2.3125 1.9375 2.3125 1.9375 3.375 4.1875 C3.30168305 7.41344589 2.20488986 9.21403115 0.49609375 11.8984375 C-1.32685691 15.03896636 -2.49865529 18.40313804 -3.7578125 21.80078125 C-4.6875 23.9375 -4.6875 23.9375 -6.6875 25.9375 C-6.6875 24.9475 -6.6875 23.9575 -6.6875 22.9375 C-8.3271875 23.185 -8.3271875 23.185 -10 23.4375 C-13.6875 23.9375 -13.6875 23.9375 -16.6875 23.9375 C-15.01010587 18.21462591 -12.84967618 12.86524502 -10.25 7.5 C-9.96181396 6.88495605 -9.67362793 6.26991211 -9.37670898 5.63623047 C-8.08203205 3.02949353 -7.01726509 1.17447947 -4.6328125 -0.5390625 C-2.6875 -1.0625 -2.6875 -1.0625 0 0 Z " fill="#6C5AA7" transform="translate(175.6875,239.0625)"/>
<path d="M0 0 C0.66 0 1.32 0 2 0 C1.73584128 4.23192271 1.46921298 8.46368097 1.20043945 12.6953125 C1.10961545 14.13049257 1.01942957 15.56571319 0.92993164 17.00097656 C0.42967488 25.0162637 -0.10641768 33.01668988 -1 41 C-2.65 40.67 -4.3 40.34 -6 40 C-6.19814261 46.08408472 -6.19814261 46.08408472 -5 52 C-6.485 52.495 -6.485 52.495 -8 53 C-9.87094252 45.76721002 -10.40934408 38.89110763 -10.625 31.4375 C-10.66367188 30.33341797 -10.70234375 29.22933594 -10.7421875 28.09179688 C-10.83559384 25.39468875 -10.92136476 22.6975723 -11 20 C-7.535 19.505 -7.535 19.505 -4 19 C-3.34 19.99 -2.68 20.98 -2 22 C-0.57485018 17.44620096 -0.97499538 12.91118644 -1.0625 8.19140625 C-1.00605783 5.30932798 -0.66868036 2.79487492 0 0 Z " fill="#43458D" transform="translate(156,304)"/>
<path d="M0 0 C26.73 0 53.46 0 81 0 C76.90601205 8.1879759 68.02682494 11.72148495 59.859375 15.0546875 C53.43488794 17.17862994 47.19540269 17.15301424 40.5 17.125 C39.57574219 17.12886719 38.65148437 17.13273437 37.69921875 17.13671875 C33.0194739 17.13002384 28.60221134 16.96646438 24 16 C24 15.67 24 15.34 24 15 C24.92337158 14.98018066 25.84674316 14.96036133 26.7980957 14.93994141 C30.22561174 14.86182261 33.65268798 14.77513003 37.07983398 14.68261719 C38.56282212 14.64434653 40.04590248 14.60949022 41.52905273 14.578125 C43.66163072 14.532432 45.79357491 14.47444662 47.92578125 14.4140625 C49.85031128 14.36693115 49.85031128 14.36693115 51.8137207 14.31884766 C55.15387459 14.23620772 55.15387459 14.23620772 58 12 C60.6875 11.875 60.6875 11.875 63 12 C63.33 11.01 63.66 10.02 64 9 C66.25680766 8.12554224 68.51954443 7.60524612 70.87109375 7.0390625 C73.65995009 5.97291259 73.65995009 5.97291259 75 1 C51.57 1 28.14 1 4 1 C4.66 2.32 5.32 3.64 6 5 C8.41679707 5.70176588 8.41679707 5.70176588 11.125 5.75 C12.03507813 5.80671875 12.94515625 5.8634375 13.8828125 5.921875 C14.58148438 5.94765625 15.28015625 5.9734375 16 6 C16 6.66 16 7.32 16 8 C15.01 8.495 15.01 8.495 14 9 C14 9.66 14 10.32 14 11 C7.86397012 9.58399311 3.73301638 5.9336625 -1 2 C-0.67 1.34 -0.34 0.68 0 0 Z " fill="#323C77" transform="translate(234,380)"/>
<path d="M0 0 C2.68424402 10.18238022 2.68424402 10.18238022 1 14 C-2.58829683 16.74399169 -6.84810534 18.27657203 -11 20 C-11.66 20.33 -12.32 20.66 -13 21 C-13.66 20.34 -14.32 19.68 -15 19 C-14.01 18.01 -13.02 17.02 -12 16 C-12.66 15.34 -13.32 14.68 -14 14 C-14.99 14.66 -15.98 15.32 -17 16 C-17.33 15.34 -17.66 14.68 -18 14 C-17.01 13.34 -16.02 12.68 -15 12 C-14.71125 11.071875 -14.4225 10.14375 -14.125 9.1875 C-12.78106019 5.37967053 -11.04789403 3.60186076 -8 1 C-5.07175348 0.02391783 -3.04386724 -0.08226668 0 0 Z " fill="#916ABF" transform="translate(298,183)"/>
<path d="M0 0 C2.5 2.125 2.5 2.125 4 5 C4.07481382 9.26438773 3.64839572 11.23718151 0.875 14.5 C-2.97148295 16.50686067 -4.88546541 16.27176524 -9 15 C-11.5 12.875 -11.5 12.875 -13 10 C-13.07481382 5.73561227 -12.64839572 3.76281849 -9.875 0.5 C-6.02851705 -1.50686067 -4.11453459 -1.27176524 0 0 Z " fill="#884F9C" transform="translate(286,105)"/>
<path d="M0 0 C2.3125 0.625 2.3125 0.625 4.25 2.8125 C5.3125 5.625 5.3125 5.625 4.61328125 8.03515625 C1.93155218 13.37445467 -2.36082851 17.79091022 -8 19.8125 C-10.6875 19.625 -10.6875 19.625 -12.5625 18.5 C-14.13457174 15.87988044 -14.24991951 14.64800485 -13.6875 11.625 C-10.29719497 6.83868702 -5.90702963 1.37372782 0 0 Z " fill="#785FAE" transform="translate(191.6875,218.375)"/>
<path d="M0 0 C2.4375 0.75 2.4375 0.75 4.4375 2.75 C4.59763661 6.75341537 4.20368083 8.72357248 1.79296875 11.953125 C-1.26025262 15.19899704 -3.6454602 17.42124988 -7.875 18.9375 C-10.5625 18.75 -10.5625 18.75 -12.5 17.75 C-14.29570883 14.36984221 -13.64635568 12.36285225 -12.5625 8.75 C-9.5529154 4.93427667 -5.14505246 -0.50195634 0 0 Z " fill="#8264B3" transform="translate(187.5625,199.25)"/>
<path d="M0 0 C1.42757954 2.85515909 1.31933984 4.83386233 1 8 C-0.7578125 10.51953125 -0.7578125 10.51953125 -3.125 12.8125 C-3.89070312 13.58207031 -4.65640625 14.35164062 -5.4453125 15.14453125 C-8.38799469 17.28180043 -10.39611659 17.77506969 -14 18 C-15.9375 17 -15.9375 17 -17 15 C-17 10.61070733 -16.5156213 8.59703519 -13.625 5.25 C-12.75875 4.5075 -11.8925 3.765 -11 3 C-10.46375 2.4225 -9.9275 1.845 -9.375 1.25 C-6.34450436 -1.50499603 -3.66510717 -1.06095208 0 0 Z " fill="#735DA9" transform="translate(215,224)"/>
<path d="M0 0 C2.3125 2.5 2.3125 2.5 4 5 C4.66 5.33 5.32 5.66 6 6 C6.4140625 8.06640625 6.4140625 8.06640625 6.625 10.5625 C6.69976562 11.38878906 6.77453125 12.21507812 6.8515625 13.06640625 C6.90054688 13.70449219 6.94953125 14.34257812 7 15 C3.74586594 17.16942271 2.77572967 17.56063865 -1 17 C-5.17725879 13.66708075 -8.4141423 9.66506925 -10.1875 4.625 C-10 2 -10 2 -9 0.0625 C-5.7197889 -1.68011215 -3.49024361 -0.9797175 0 0 Z " fill="#273C8B" transform="translate(180,397)"/>
<path d="M0 0 C2.97 1.98 2.97 1.98 6 4 C6.33 3.01 6.66 2.02 7 1 C7 1.66 7 2.32 7 3 C8.65 2.34 10.3 1.68 12 1 C13.66666667 2.66666667 15.33333333 4.33333333 17 6 C17.78375 6.680625 18.5675 7.36125 19.375 8.0625 C21 10 21 10 21.0625 12 C19.5910522 14.7697841 17.51990799 16.19083529 15 18 C12.06769807 16.67879172 10.01335101 15.25361803 7.765625 12.9609375 C7.19199219 12.38085938 6.61835938 11.80078125 6.02734375 11.203125 C5.44082031 10.59984375 4.85429687 9.9965625 4.25 9.375 C3.64800781 8.76398438 3.04601562 8.15296875 2.42578125 7.5234375 C0.94594695 6.02011376 -0.52764676 4.51065144 -2 3 C-1.34 2.67 -0.68 2.34 0 2 C0 1.34 0 0.68 0 0 Z " fill="#8768B5" transform="translate(211,201)"/>
<path d="M0 0 C0.66 0.33 1.32 0.66 2 1 C2.33 8.26 2.66 15.52 3 23 C4.32 23.33 5.64 23.66 7 24 C8.65079442 22.34920558 8.22549447 20.36263821 8.31640625 18.08984375 C8.35830078 17.10048828 8.40019531 16.11113281 8.44335938 15.09179688 C8.50233398 13.53041992 8.50233398 13.53041992 8.5625 11.9375 C8.60568359 10.89271484 8.64886719 9.84792969 8.69335938 8.77148438 C8.79981225 6.18113116 8.9018276 3.59067814 9 1 C13.36503148 -0.18719263 16.53273214 0.32990982 21 1 C19 4 19 4 16.5 4.6875 C14 5 14 5 12 5 C11.97421875 6.31355469 11.9484375 7.62710937 11.921875 8.98046875 C11.86558171 10.7161785 11.80823465 12.4518543 11.75 14.1875 C11.72873047 15.48397461 11.72873047 15.48397461 11.70703125 16.80664062 C11.54980289 20.91030075 11.30717772 23.46141507 9.2421875 27.08203125 C6.69950964 29.25703966 5.67205481 29.63232327 2.375 29.5 C1.59898437 29.4896875 0.82296875 29.479375 0.0234375 29.46875 C-2 29 -2 29 -4 26 C-4 25.01 -4 24.02 -4 23 C-3.34 23 -2.68 23 -2 23 C-0.79729036 20.59458071 -0.79683337 18.89633409 -0.68359375 16.2109375 C-0.64169922 15.26992188 -0.59980469 14.32890625 -0.55664062 13.359375 C-0.49766602 11.88210938 -0.49766602 11.88210938 -0.4375 10.375 C-0.39431641 9.38242187 -0.35113281 8.38984375 -0.30664062 7.3671875 C-0.20038931 4.91160162 -0.09835036 2.45591297 0 0 Z " fill="#615792" transform="translate(268,251)"/>
<path d="M0 0 C2.01822917 0.29296875 4.03645833 0.5859375 6.0546875 0.87890625 C8.08140667 1.1684297 8.08140667 1.1684297 10 0 C10.33 0.66 10.66 1.32 11 2 C12.32 1.67 13.64 1.34 15 1 C14.79375 1.61875 14.5875 2.2375 14.375 2.875 C14.189375 3.926875 14.189375 3.926875 14 5 C14.66 5.66 15.32 6.32 16 7 C15.34 7 14.68 7 14 7 C14.66 8.65 15.32 10.3 16 12 C14.9375 13.5 14.9375 13.5 13 15 C7.23296512 15.76168385 4.58728619 14.36400987 0 11 C-0.680625 10.835 -1.36125 10.67 -2.0625 10.5 C-4.95318827 9.75401593 -6.77047653 7.91986743 -9 6 C-9.99 7.32 -10.98 8.64 -12 10 C-11.67 10.66 -11.34 11.32 -11 12 C-11.8125 14.30859375 -11.8125 14.30859375 -13 17 C-13.33 17.83660156 -13.66 18.67320312 -14 19.53515625 C-14.33 20.36917969 -14.66 21.20320313 -15 22.0625 C-15.33 22.89910156 -15.66 23.73570312 -16 24.59765625 C-16.91192449 26.78841236 -17.91010437 28.89319283 -19 31 C-18.32583669 21.05609113 -15.63415133 11.83136839 -11 3 C-5.98505437 4.79852889 -1.58379213 7.53949299 2.91601562 10.34179688 C6.43097015 12.49871803 6.43097015 12.49871803 10.43359375 12.73828125 C11.20896484 12.37283203 11.20896484 12.37283203 12 12 C11.9307652 9.60080146 11.9307652 9.60080146 11 7 C8.4952741 5.09497396 8.4952741 5.09497396 5.4375 3.6875 C4.42558594 3.17574219 3.41367188 2.66398437 2.37109375 2.13671875 C1.58863281 1.76160156 0.80617187 1.38648438 0 1 C0 0.67 0 0.34 0 0 Z " fill="#4B4786" transform="translate(208,296)"/>
<path d="M0 0 C15.04320234 12.2226019 15.04320234 12.2226019 16 20 C13.87767021 21.17176518 11.75242209 22.33754785 9.625 23.5 C9.02171875 23.83386719 8.4184375 24.16773438 7.796875 24.51171875 C3.2265625 27 3.2265625 27 1 27 C0.67 26.01 0.34 25.02 0 24 C0.78375 23.9175 1.5675 23.835 2.375 23.75 C5.10584868 23.26796244 5.10584868 23.26796244 6.3125 21.125 C7.61954606 17.08503946 6.80416464 13.09392908 6 9 C4.8511303 6.92993467 4.8511303 6.92993467 3 6 C0.83700789 6.22757731 0.83700789 6.22757731 -1 7 C-0.67 4.69 -0.34 2.38 0 0 Z M8 12 C9 15 9 15 9 15 Z " fill="#5951A0" transform="translate(330,272)"/>
<path d="M0 0 C0.86540909 -0.00189835 1.73081818 -0.00379669 2.62245178 -0.00575256 C5.48968507 -0.00946343 8.35666607 0.00125272 11.22387695 0.01245117 C13.21824616 0.01364348 15.21261593 0.01409603 17.20698547 0.01383972 C21.39258325 0.01540541 25.5780956 0.02369824 29.76367188 0.03710938 C35.11560986 0.05404428 40.46745345 0.05792524 45.81941509 0.05716419 C49.94164422 0.05743695 54.06385291 0.06293607 58.18607521 0.07016563 C60.15834206 0.07333787 62.13061122 0.07531632 64.10288048 0.07605934 C66.86940775 0.07824141 69.63583762 0.08702718 72.40234375 0.09765625 C73.21043488 0.09720306 74.018526 0.09674988 74.85110474 0.09628296 C79.82178208 0.1240338 84.62240009 0.37834472 89.5246582 1.24291992 C90.0196582 2.23291992 90.0196582 2.23291992 90.5246582 3.24291992 C56.8646582 2.91291992 23.2046582 2.58291992 -11.4753418 2.24291992 C-7.6215251 -0.32629121 -4.46626852 -0.03067447 0 0 Z " fill="#374183" transform="translate(237.475341796875,369.757080078125)"/>
<path d="M0 0 C-0.33 1.32 -0.66 2.64 -1 4 C-1.94875 3.79375 -2.8975 3.5875 -3.875 3.375 C-8.62149785 2.70524877 -13.54616928 3.20055468 -18 5 C-19.42505339 7.15695392 -20 8.41361696 -20 11 C-22.64 11.33 -25.28 11.66 -28 12 C-27.67 13.65 -27.34 15.3 -27 17 C-27.66 17.33 -28.32 17.66 -29 18 C-32.22265625 12.82421875 -32.22265625 12.82421875 -33 11 C-32 8 -32 8 -28.97265625 6.46484375 C-27.67500609 5.94128356 -26.37113172 5.43297374 -25.0625 4.9375 C-24.38316406 4.67437012 -23.70382813 4.41124023 -23.00390625 4.14013672 C-15.39259014 1.27327973 -8.15509969 -0.35456955 0 0 Z " fill="#6A5AA2" transform="translate(267,252)"/>
<path d="M0 0 C2.12508244 3.18762365 2.5020163 5.26512223 3 9 C1.66666667 9.66666667 0.33333333 10.33333333 -1 11 C-1.70125 11.391875 -2.4025 11.78375 -3.125 12.1875 C-3.74375 12.455625 -4.3625 12.72375 -5 13 C-5.66 12.67 -6.32 12.34 -7 12 C-9.09821215 12.39938767 -9.09821215 12.39938767 -11 13 C-11.765625 10.76953125 -11.765625 10.76953125 -12 8 C-10.234375 5.76171875 -10.234375 5.76171875 -7.75 3.6875 C-6.94046875 2.99011719 -6.1309375 2.29273438 -5.296875 1.57421875 C-3 0 -3 0 0 0 Z " fill="#5F52A0" transform="translate(228,266)"/>
<path d="M0 0 C2.97 0.33 5.94 0.66 9 1 C9.33 2.32 9.66 3.64 10 5 C9.34 5.66 8.68 6.32 8 7 C8.3185177 9.10820797 8.3185177 9.10820797 9 11 C12.465 10.505 12.465 10.505 16 10 C15.34 11.65 14.68 13.3 14 15 C12.35 15 10.7 15 9 15 C8.67 14.01 8.34 13.02 8 12 C7.34 12.66 6.68 13.32 6 14 C4.68252676 14.69748583 3.35085807 15.36959957 2 16 C1.34 14.68 0.68 13.36 0 12 C0.66 11.01 1.32 10.02 2 9 C1.39351421 7.31050386 0.72159424 5.64363134 0 4 C0 2.68 0 1.36 0 0 Z " fill="#524C97" transform="translate(320,296)"/>
<path d="M0 0 C0.33 0 0.66 0 1 0 C1.268125 1.051875 1.53625 2.10375 1.8125 3.1875 C1.99683594 3.909375 2.18117187 4.63125 2.37109375 5.375 C2.83821947 7.32474213 3.2610572 9.28520466 3.66015625 11.25 C3.89605469 12.384375 4.13195312 13.51875 4.375 14.6875 C4.69597656 16.30205078 4.69597656 16.30205078 5.0234375 17.94921875 C6.11617603 21.36293393 7.65615951 23.32264861 10 26 C11.96958975 29.84070001 12 32.7400812 12 37 C12.66 37.99 13.32 38.98 14 40 C13.625 42.1875 13.625 42.1875 13 44 C5.25212213 29.68899258 0.55714942 16.51948021 0 0 Z " fill="#363E81" transform="translate(188,339)"/>
<path d="M0 0 C1.10844919 3.32534757 0.84454356 5.62182575 0 9 C0.66 9 1.32 9 2 9 C1.01 11.97 0.02 14.94 -1 18 C1.33075929 17.04134491 1.33075929 17.04134491 3 14 C3.639375 13.855625 4.27875 13.71125 4.9375 13.5625 C7.20050729 13.18206461 7.20050729 13.18206461 8.4375 10.9375 C8.953125 10.298125 9.46875 9.65875 10 9 C12.6875 8.75 12.6875 8.75 15 9 C10.93226011 13.32448087 6.46343737 16.79990263 1.6875 20.3125 C0.57665039 21.13717773 0.57665039 21.13717773 -0.55664062 21.97851562 C-2.36839676 23.32272179 -4.182859 24.66308744 -6 26 C-6.33 25.01 -6.66 24.02 -7 23 C-6.0390625 21.1953125 -6.0390625 21.1953125 -4.625 19.125 C-1.59289797 14.04916069 -1.3294348 9.45113087 -1.140625 3.625 C-1 1 -1 1 0 0 Z " fill="#77639D" transform="translate(266,202)"/>
<path d="M0 0 C0.99 0 1.98 0 3 0 C3.33 0.99 3.66 1.98 4 3 C3.34 3 2.68 3 2 3 C0.66425384 6.97437366 0.66425384 6.97437366 1 11 C3.95402297 14.77132046 7.37002066 17.8867664 11 21 C10.67 21.66 10.34 22.32 10 23 C8.35 23 6.7 23 5 23 C4.855625 22.21625 4.71125 21.4325 4.5625 20.625 C4.12201075 18.03578982 4.12201075 18.03578982 3 16 C2.01 16 1.02 16 0 16 C-1.625 14.5 -1.625 14.5 -3 13 C-3.33 13 -3.66 13 -4 13 C-4 11.02 -4 9.04 -4 7 C-3.34 7 -2.68 7 -2 7 C-2.66 5.35 -3.32 3.7 -4 2 C-3.34 1.67 -2.68 1.34 -2 1 C-1.34 1.33 -0.68 1.66 0 2 C0 1.34 0 0.68 0 0 Z " fill="#2C387B" transform="translate(220,368)"/>
<path d="M0 0 C0.66 0 1.32 0 2 0 C5.74361774 5.61542661 5.68396373 11.40019411 5 18 C3.98046875 20.87109375 3.98046875 20.87109375 3 23 C3.66 23.66 4.32 24.32 5 25 C4.0925 25.2475 3.185 25.495 2.25 25.75 C-1.01624357 26.73492329 -1.01624357 26.73492329 -2.8125 28.9375 C-5.9483782 31.89418516 -9.73699712 33.35623161 -14 34 C-14.99 33.34 -15.98 32.68 -17 32 C-16.33613281 31.82984375 -15.67226563 31.6596875 -14.98828125 31.484375 C-8.10695933 29.59577862 -4.02241725 27.80891285 0.25 21.875 C2.90693298 16.81056041 3.80461262 11.15224819 2.3828125 5.58203125 C1.67797054 3.68567074 0.84995736 1.83590791 0 0 Z " fill="#41437E" transform="translate(292,326)"/>
<path d="M0 0 C0.99 0.33 1.98 0.66 3 1 C2.835 1.598125 2.67 2.19625 2.5 2.8125 C1.8885876 5.11344336 1.8885876 5.11344336 2 8 C1.01 8 0.02 8 -1 8 C-1.33 8.66 -1.66 9.32 -2 10 C-2.99 10.33 -3.98 10.66 -5 11 C-4.67 12.65 -4.34 14.3 -4 16 C-5.65 16.33 -7.3 16.66 -9 17 C-9.703125 15.28125 -9.703125 15.28125 -10 13 C-8.671875 10.78125 -8.671875 10.78125 -6.75 8.5 C-6.12609375 7.7471875 -5.5021875 6.994375 -4.859375 6.21875 C-4.24578125 5.4865625 -3.6321875 4.754375 -3 4 C-1.99129749 2.67323814 -0.98824884 1.34206632 0 0 Z " fill="#5E52A1" transform="translate(212,277)"/>
<path d="M0 0 C2.3125 2.5 2.3125 2.5 4 5 C4.66 5.33 5.32 5.66 6 6 C6.4140625 8.06640625 6.4140625 8.06640625 6.625 10.5625 C6.69976562 11.38878906 6.77453125 12.21507812 6.8515625 13.06640625 C6.90054688 13.70449219 6.94953125 14.34257812 7 15 C3.74586594 17.16942271 2.77572967 17.56063865 -1 17 C-5.17725879 13.66708075 -8.4141423 9.66506925 -10.1875 4.625 C-10 2 -10 2 -9 0.0625 C-5.7197889 -1.68011215 -3.49024361 -0.9797175 0 0 Z M-8 1 C-7.56742916 6.40713546 -6.56846586 9.852864 -3 14 C0.10935018 15.42779274 0.10935018 15.42779274 3 16 C4.68681738 14.89958081 4.68681738 14.89958081 6 13 C6.08223366 9.91004903 6.08223366 9.91004903 5 7 C3.16715557 5.87483915 3.16715557 5.87483915 1 5 C-0.34294481 3.34106818 -1.67744688 1.67523395 -3 0 C-5.21081851 -0.10540926 -5.21081851 -0.10540926 -8 1 Z " fill="#2E3C78" transform="translate(180,397)"/>
<path d="M0 0 C0.99 0 1.98 0 3 0 C3.66 0.99 4.32 1.98 5 3 C7.55183404 4.20450304 7.55183404 4.20450304 10 5 C10.33 3.35 10.66 1.7 11 0 C13 0.66666667 15 1.33333333 17 2 C16.65120368 5.25543229 15.97866739 6.01873107 13.4375 8.25 C12.633125 8.8275 11.82875 9.405 11 10 C7.81326038 8.59698853 5.67778594 6.92234929 3.25 4.4375 C2.63640625 3.81746094 2.0228125 3.19742188 1.390625 2.55859375 C0 1 0 1 0 0 Z " fill="#7E64B1" transform="translate(215,209)"/>
<path d="M0 0 C0 4.07296705 -0.71610748 7.57416122 -3 11 C-5.625 12.25 -5.625 12.25 -8 13 C-7.37240135 10.07120629 -6.41377341 7.63904371 -5 5 C-6.70625501 2.21611025 -7.47626739 1.14615794 -10.6875 0.25 C-11.8321875 0.12625 -11.8321875 0.12625 -13 0 C-13 -0.33 -13 -0.66 -13 -1 C-8.05632546 -2.20577428 -4.79137588 -1.6290678 0 0 Z " fill="#2F3D8B" transform="translate(335,371)"/>
<path d="M0 0 C0.99 0 1.98 0 3 0 C0.84464295 10.18896058 -3.19279258 19.37214898 -9 28 C-9.66 27.34 -10.32 26.68 -11 26 C-10.7578125 24.0546875 -10.7578125 24.0546875 -10.125 21.875 C-9.92132813 21.15054687 -9.71765625 20.42609375 -9.5078125 19.6796875 C-9.25644531 18.84824219 -9.25644531 18.84824219 -9 18 C-8.36449219 17.87882812 -7.72898437 17.75765625 -7.07421875 17.6328125 C-4.78825743 17.19712071 -4.78825743 17.19712071 -3.8125 14.875 C-2.90615007 11.91612984 -2.90615007 11.91612984 -2.5 8.4375 C-2.05898355 5.40551193 -1.50123419 3.60213927 0 1 C0 0.67 0 0.34 0 0 Z " fill="#354078" transform="translate(355,358)"/>
<path d="M0 0 C0.9075 0.165 1.815 0.33 2.75 0.5 C6.11087503 1.10137146 6.11087503 1.10137146 10 1 C10 2.32 10 3.64 10 5 C7.73291675 5.8655047 5.46224921 6.71759315 3.1875 7.5625 C2.22360352 7.9327832 2.22360352 7.9327832 1.24023438 8.31054688 C-3.66015625 10.11328125 -3.66015625 10.11328125 -7 9 C-6.030625 8.566875 -5.06125 8.13375 -4.0625 7.6875 C-0.72268235 6.2985139 -0.72268235 6.2985139 0 3 C-0.66 2.67 -1.32 2.34 -2 2 C-1.34 2 -0.68 2 0 2 C0 1.34 0 0.68 0 0 Z " fill="#8C6CB9" transform="translate(251,192)"/>
<path d="M0 0 C3.4375 0.1875 3.4375 0.1875 4.4375 1.1875 C4.47830783 3.18708364 4.48004356 5.18795254 4.4375 7.1875 C2.1875 7.875 2.1875 7.875 -0.5625 8.1875 C-2.875 6.75 -2.875 6.75 -4.5625 5.1875 C-5.5525 5.6825 -5.5525 5.6825 -6.5625 6.1875 C-5.66213398 1.68566989 -4.89357715 0.25755669 0 0 Z " fill="#7B60B0" transform="translate(211.5625,224.8125)"/>
<path d="M0 0 C0.66 0.33 1.32 0.66 2 1 C2.0825 1.928125 2.165 2.85625 2.25 3.8125 C2.88020693 9.71914534 6.2352191 14.85091263 9 20 C8.01 20.33 7.02 20.66 6 21 C5.34 20.34 4.68 19.68 4 19 C3.34 19.33 2.68 19.66 2 20 C2.33 18.02 2.66 16.04 3 14 C2.34 13.67 1.68 13.34 1 13 C0.33203125 10.3125 0.33203125 10.3125 -0.1875 7 C-0.36667969 5.906875 -0.54585937 4.81375 -0.73046875 3.6875 C-0.81941406 2.800625 -0.90835938 1.91375 -1 1 C-0.67 0.67 -0.34 0.34 0 0 Z " fill="#524C8E" transform="translate(232,290)"/>
<path d="M0 0 C2.01822917 0.29296875 4.03645833 0.5859375 6.0546875 0.87890625 C8.08140667 1.1684297 8.08140667 1.1684297 10 0 C10.33 0.66 10.66 1.32 11 2 C12.32 1.67 13.64 1.34 15 1 C14.79375 1.61875 14.5875 2.2375 14.375 2.875 C14.25125 3.57625 14.1275 4.2775 14 5 C14.66 5.66 15.32 6.32 16 7 C15.34 7 14.68 7 14 7 C14.66 8.65 15.32 10.3 16 12 C14.68 12.33 13.36 12.66 12 13 C12.12375 12.25234375 12.2475 11.5046875 12.375 10.734375 C12.25125 9.83203125 12.1275 8.9296875 12 8 C9.35455009 5.88703258 9.35455009 5.88703258 6 4.25 C3.99226625 3.18106768 1.98999477 2.10160425 0 1 C0 0.67 0 0.34 0 0 Z " fill="#544D91" transform="translate(208,296)"/>
<path d="M0 0 C2.53149646 1.26574823 2.62100714 2.18269593 3.6875 4.75 C6.1827607 9.90687212 9.65006881 12.75518121 15.0078125 14.74609375 C16.65411001 15.22931873 18.32591376 15.62418472 20 16 C20 16.33 20 16.66 20 17 C16.05272412 17.17942163 13.4019487 17.09350689 10 15 C10 15.66 10 16.32 10 17 C8.68 17.33 7.36 17.66 6 18 C5.731875 17.154375 5.46375 16.30875 5.1875 15.4375 C4.03176376 11.94228223 4.03176376 11.94228223 2.4375 8.4375 C1.23024227 5.55057934 0.46571771 3.07373688 0 0 Z M8 14 C7.01 14.495 7.01 14.495 6 15 C6.33 15.66 6.66 16.32 7 17 C7.66 16.67 8.32 16.34 9 16 C8.67 15.34 8.34 14.68 8 14 Z " fill="#373C7F" transform="translate(253,342)"/>
<path d="M0 0 C2.97 0.99 5.94 1.98 9 3 C8.5139707 7.37426366 7.1638148 9.03866935 4 12 C3.33139964 10.18821242 2.66516988 8.37554984 2 6.5625 C1.62875 5.55316406 1.2575 4.54382813 0.875 3.50390625 C0 1 0 1 0 0 Z " fill="#64599A" transform="translate(304,257)"/>
<path d="M0 0 C0.928125 0.639375 1.85625 1.27875 2.8125 1.9375 C5.84219943 4.08622093 5.84219943 4.08622093 9 5 C8.67 5.99 8.34 6.98 8 8 C6.02 8.33 4.04 8.66 2 9 C2.33 7.68 2.66 6.36 3 5 C2.34 5 1.68 5 1 5 C1 6.65 1 8.3 1 10 C0.01 10 -0.98 10 -2 10 C-3.06351675 6.61608307 -3.21442982 5.4195366 -1.5625 2.1875 C-1.046875 1.465625 -0.53125 0.74375 0 0 Z " fill="#514B9D" transform="translate(198,301)"/>
<path d="M0 0 C2.0625 0.4375 2.0625 0.4375 4 1 C2.6396147 5.45217009 1.11130825 7.73458525 -3 10 C-7.49373968 10.739823 -11.95914649 11.12558524 -16.046875 8.87109375 C-17.6875 7.5 -17.6875 7.5 -20 5 C-18.68 4.67 -17.36 4.34 -16 4 C-15.67 5.32 -15.34 6.64 -15 8 C-13.39620659 8.05416188 -11.79188594 8.09286638 -10.1875 8.125 C-9.29417969 8.14820313 -8.40085937 8.17140625 -7.48046875 8.1953125 C-4.74597286 8.18285827 -4.74597286 8.18285827 -2 6 C-1.34 5.67 -0.68 5.34 0 5 C-0.185625 4.360625 -0.37125 3.72125 -0.5625 3.0625 C-0.706875 2.381875 -0.85125 1.70125 -1 1 C-0.67 0.67 -0.34 0.34 0 0 Z " fill="#404280" transform="translate(283,340)"/>
<path d="M0 0 C0.66 0.33 1.32 0.66 2 1 C2 1.99 2 2.98 2 4 C-0.12232979 5.17176518 -2.24757791 6.33754785 -4.375 7.5 C-4.97828125 7.83386719 -5.5815625 8.16773438 -6.203125 8.51171875 C-10.7734375 11 -10.7734375 11 -13 11 C-13.33 10.01 -13.66 9.02 -14 8 C-12.8553125 7.9071875 -12.8553125 7.9071875 -11.6875 7.8125 C-8.76948191 7.23064738 -8.76948191 7.23064738 -7.1875 4.4375 C-6.795625 3.633125 -6.40375 2.82875 -6 2 C-4.68 2.33 -3.36 2.66 -2 3 C-1.34 2.01 -0.68 1.02 0 0 Z " fill="#574F8E" transform="translate(344,288)"/>
<path d="M0 0 C0.99 0 1.98 0 3 0 C3.33 1.65 3.66 3.3 4 5 C3.34 5 2.68 5 2 5 C2 6.65 2 8.3 2 10 C1.01 10.495 1.01 10.495 0 11 C-0.33 10.34 -0.66 9.68 -1 9 C-1.99 9.99 -2.98 10.98 -4 12 C-4.66 11.67 -5.32 11.34 -6 11 C-4.02 7.37 -2.04 3.74 0 0 Z " fill="#60549B" transform="translate(316,270)"/>
<path d="M0 0 C0.66 0.33 1.32 0.66 2 1 C2 8.26 2 15.52 2 23 C1.01 22.67 0.02 22.34 -1 22 C-0.67 14.74 -0.34 7.48 0 0 Z " fill="#6B5F9F" transform="translate(268,251)"/>
<path d="M0 0 C2.6875 -0.25 2.6875 -0.25 5 0 C0.76790414 4.50513431 -3.88695859 8.514292 -9 12 C-9.66 12 -10.32 12 -11 12 C-9.79618552 9.50638429 -8.54571278 7.31856917 -7 5 C-6.360625 4.855625 -5.72125 4.71125 -5.0625 4.5625 C-2.79949271 4.18206461 -2.79949271 4.18206461 -1.5625 1.9375 C-1.046875 1.298125 -0.53125 0.65875 0 0 Z " fill="#7B61A8" transform="translate(276,211)"/>
<path d="M0 0 C0.33 0.66 0.66 1.32 1 2 C-0.93742341 2.02703381 -2.87495479 2.04641125 -4.8125 2.0625 C-5.89144531 2.07410156 -6.97039062 2.08570312 -8.08203125 2.09765625 C-11 2 -11 2 -14 1 C-14 1.66 -14 2.32 -14 3 C-16 4.625 -16 4.625 -18 6 C-18.66 5.67 -19.32 5.34 -20 5 C-15.78354777 -3.26424636 -8.01317558 -1.56354645 0 0 Z " fill="#B381C4" transform="translate(233,116)"/>
<path d="M0 0 C4.43458973 1.3937282 6.87378374 3.60582235 10 7 C9.34 8.32 8.68 9.64 8 11 C1.29540481 5.9059081 1.29540481 5.9059081 0.0625 2.125 C0.041875 1.42375 0.02125 0.7225 0 0 Z " fill="#4B4793" transform="translate(250,309)"/>
<path d="M0 0 C1.41791408 0.45445964 2.83428046 0.91374944 4.25 1.375 C5.43335938 1.75785156 5.43335938 1.75785156 6.640625 2.1484375 C8.86627958 2.95173667 10.90931672 3.89711662 13 5 C13 5.66 13 6.32 13 7 C14.8871875 7.1546875 14.8871875 7.1546875 16.8125 7.3125 C19.60499657 7.64858808 20.74433121 7.80025876 23 9.5625 C23.33 10.036875 23.66 10.51125 24 11 C18.14655106 10.50069005 13.80976283 8.75991345 8.625 6.0625 C7.90183594 5.70220703 7.17867187 5.34191406 6.43359375 4.97070312 C1.13614105 2.2722821 1.13614105 2.2722821 0 0 Z " fill="#2D3C76" transform="translate(227,408)"/>
<path d="M0 0 C-0.66 1.65 -1.32 3.3 -2 5 C-5.63 5 -9.26 5 -13 5 C-13 4.34 -13 3.68 -13 3 C-11.5903653 2.29819469 -10.17192359 1.61406042 -8.75 0.9375 C-7.96109375 0.55464844 -7.1721875 0.17179687 -6.359375 -0.22265625 C-3.74006478 -1.08564091 -2.55144824 -0.93045933 0 0 Z " fill="#263B8E" transform="translate(306,402)"/>
<path d="M0 0 C5.23435005 4.27293882 9.67106815 8.81580806 14 14 C11 14 11 14 8.5 11.6875 C7.11303732 10.19651512 5.74113637 8.68936364 4.4375 7.125 C3.963125 6.75375 3.48875 6.3825 3 6 C0.83700789 6.22757731 0.83700789 6.22757731 -1 7 C-0.67 4.69 -0.34 2.38 0 0 Z " fill="#5E5391" transform="translate(330,272)"/>
<path d="M0 0 C0.66 0.33 1.32 0.66 2 1 C1.7618484 5.12796115 1.60339108 7.34632633 -1.25 10.4375 C-4.1811251 12.10291199 -5.6946094 12.37775893 -9 12 C-9.33 11.34 -9.66 10.68 -10 10 C-9.01 10 -8.02 10 -7 10 C-7 9.34 -7 8.68 -7 8 C-5 8 -3 8 -1 8 C-1.020625 6.865625 -1.04125 5.73125 -1.0625 4.5625 C-1 1 -1 1 0 0 Z " fill="#87599B" transform="translate(288,109)"/>
<path d="M0 0 C1.485 0.99 1.485 0.99 3 2 C3 2.66 3 3.32 3 4 C4.32 3.34 5.64 2.68 7 2 C9.72286806 6.08430208 9.38524534 8.14590877 9 13 C8.01 13.66 7.02 14.32 6 15 C5.97421875 14.37351562 5.9484375 13.74703125 5.921875 13.1015625 C5.86515625 12.28429687 5.8084375 11.46703125 5.75 10.625 C5.70359375 9.81289063 5.6571875 9.00078125 5.609375 8.1640625 C5.22003286 5.81692416 5.22003286 5.81692416 3 4.84375 C2.34 4.5653125 1.68 4.286875 1 4 C0.25 1.875 0.25 1.875 0 0 Z " fill="#6054A0" transform="translate(239,270)"/>
<path d="M0 0 C3.28994427 3.28994427 4.86693966 6.61617249 5.3125 11.25 C5 14 5 14 3 16 C-0.625 16.125 -0.625 16.125 -4 16 C-3.67 14.68 -3.34 13.36 -3 12 C-2.67 12.66 -2.34 13.32 -2 14 C-0.68 13.67 0.64 13.34 2 13 C2.30576195 9.22902286 2.30576195 9.22902286 1 7.0625 C-0.20717433 4.57270294 -0.15181653 2.7326975 0 0 Z " fill="#2F3775" transform="translate(166,375)"/>
<path d="M0 0 C2 0.66666667 4 1.33333333 6 2 C6.99 2 7.98 2 9 2 C8.95875 2.763125 8.9175 3.52625 8.875 4.3125 C8.77919176 7.22718416 8.77919176 7.22718416 11 10 C6.01987239 8.49087042 2.75740058 5.44338151 -1 2 C-0.67 1.34 -0.34 0.68 0 0 Z " fill="#544E91" transform="translate(262,305)"/>
<path d="M0 0 C0.70125 0.268125 1.4025 0.53625 2.125 0.8125 C-0.23792656 3.33838702 -1.53962511 4.70070837 -4.875 5.8125 C-6.54210346 7.31235609 -6.54210346 7.31235609 -7.875 8.8125 C-8.205 7.4925 -8.535 6.1725 -8.875 4.8125 C-3.58269231 -0.23365385 -3.58269231 -0.23365385 0 0 Z " fill="#A670C9" transform="translate(200.875,143.1875)"/>
<path d="M0 0 C0.66 0 1.32 0 2 0 C0.58192622 4.47238653 -1.11304374 8.71146306 -3 13 C-3.99 13 -4.98 13 -6 13 C-6.625 10.625 -6.625 10.625 -7 8 C-6.34 7.34 -5.68 6.68 -5 6 C-4.01 6 -3.02 6 -2 6 C-1.34 4.02 -0.68 2.04 0 0 Z " fill="#5E5396" transform="translate(306,269)"/>
<path d="M0 0 C0.99 0.99 1.98 1.98 3 3 C2.33333333 4.33333333 1.66666667 5.66666667 1 7 C0.731875 7.66 0.46375 8.32 0.1875 9 C-1.39825554 11.67074617 -3.56031568 13.10924465 -6 15 C-6.99 16.485 -6.99 16.485 -8 18 C-8.99 17.67 -9.98 17.34 -11 17 C-10.29875 16.319375 -9.5975 15.63875 -8.875 14.9375 C-7.9117299 13.96318955 -6.95390391 12.98348232 -6 12 C-5.44957031 11.43410156 -4.89914062 10.86820312 -4.33203125 10.28515625 C-0.93553064 6.70066387 -0.93553064 6.70066387 0.375 2.0625 C0.25125 1.381875 0.1275 0.70125 0 0 Z " fill="#2D3673" transform="translate(328,373)"/>
<path d="M0 0 C1.32 0 2.64 0 4 0 C4.33 0.99 4.66 1.98 5 3 C4.01 4.485 4.01 4.485 3 6 C-0.125 5.47916667 -3.25 4.95833333 -6.375 4.4375 C-7.674375 4.2209375 -7.674375 4.2209375 -9 4 C-9 3.67 -9 3.34 -9 3 C-5.92382812 2.70703125 -5.92382812 2.70703125 -2.84765625 2.4140625 C-2.23792969 2.27742188 -1.62820313 2.14078125 -1 2 C-0.67 1.34 -0.34 0.68 0 0 Z " fill="#49488A" transform="translate(282,312)"/>
<path d="M0 0 C-1.08203125 1.48828125 -1.08203125 1.48828125 -3 3 C-6.13671875 3.29296875 -6.13671875 3.29296875 -9.6875 3.1875 C-11.45673828 3.14689453 -11.45673828 3.14689453 -13.26171875 3.10546875 C-14.16535156 3.07066406 -15.06898438 3.03585937 -16 3 C-16.33 2.34 -16.66 1.68 -17 1 C-5.47835991 -0.14806378 -5.47835991 -0.14806378 0 0 Z " fill="#2E427B" transform="translate(285,404)"/>
<path d="M0 0 C0.33 0 0.66 0 1 0 C1.48828125 1.98567708 1.9765625 3.97135417 2.46484375 5.95703125 C2.91010705 7.65683202 3.44433985 9.33301954 4 11 C4.06802967 12.72795352 4.08495645 14.45835365 4.0625 16.1875 C4.05347656 17.08855469 4.04445312 17.98960937 4.03515625 18.91796875 C4.02355469 19.60503906 4.01195312 20.29210937 4 21 C0.53066423 14.79018051 -0.38014457 7.03267459 0 0 Z " fill="#3D4078" transform="translate(188,339)"/>
<path d="M0 0 C3.3 0 6.6 0 10 0 C9.67 0.66 9.34 1.32 9 2 C6.61370553 2.61187038 4.46459429 3 2 3 C1.67 6.63 1.34 10.26 1 14 C0.67 14 0.34 14 0 14 C0 9.38 0 4.76 0 0 Z " fill="#6B5AA6" transform="translate(278,253)"/>
<path d="M0 0 C4.455 2.97 4.455 2.97 9 6 C5.66411172 7.11196276 4.29427581 7.09809194 1 6 C-0.375 4.0625 -0.375 4.0625 -1 2 C-0.67 1.34 -0.34 0.68 0 0 Z " fill="#625899" transform="translate(321,265)"/>
<path d="M0 0 C0 0.66 0 1.32 0 2 C-0.99 2.495 -0.99 2.495 -2 3 C-2 3.66 -2 4.32 -2 5 C-5.77545388 3.90931332 -8.47043472 3.0916909 -11 0 C-6.94952424 -1.35015859 -4.2079832 -0.62084998 0 0 Z " fill="#2B397A" transform="translate(250,386)"/>
<path d="M0 0 C1.5625 1.75 1.5625 1.75 3 4 C2.6875 6.25 2.6875 6.25 2 8 C0.35 7.67 -1.3 7.34 -3 7 C-2.38722388 4.03824877 -1.74627478 2.61941217 0 0 Z " fill="#564D94" transform="translate(205,286)"/>
<path d="M0 0 C0.33 0 0.66 0 1 0 C0.53444296 6.40140935 -1.14711836 11.26769829 -4 17 C-5.6852084 12.92320841 -4.16939007 10.16924407 -2.5625 6.25 C-2.08941406 5.07953125 -1.61632812 3.9090625 -1.12890625 2.703125 C-0.75636719 1.81109375 -0.38382812 0.9190625 0 0 Z " fill="#AE81BC" transform="translate(341,95)"/>
<path d="M0 0 C0 0.99 0 1.98 0 3 C0.66 3.66 1.32 4.32 2 5 C1.34 6.32 0.68 7.64 0 9 C-2.78388975 7.29374499 -3.85384206 6.52373261 -4.75 3.3125 C-4.8325 2.549375 -4.915 1.78625 -5 1 C-2 0 -2 0 0 0 Z " fill="#2E3C8B" transform="translate(206,377)"/>
<path d="M0 0 C-0.375 1.9375 -0.375 1.9375 -1 4 C-4.21451269 5.60725635 -7.43612536 5.05748185 -11 5 C-7.92351092 1.43774949 -4.70156256 0 0 0 Z " fill="#4D499D" transform="translate(284,310)"/>
<path d="M0 0 C1.65 1.65 3.3 3.3 5 5 C3.1875 6.0625 3.1875 6.0625 1 7 C0.01 6.67 -0.98 6.34 -2 6 C-2.33 4.35 -2.66 2.7 -3 1 C-2.01 0.67 -1.02 0.34 0 0 Z " fill="#6052A6" transform="translate(267,273)"/>
<path d="M0 0 C1.32 0.66 2.64 1.32 4 2 C4.33 1.34 4.66 0.68 5 0 C5.66 0.66 6.32 1.32 7 2 C5.54462432 2.83848804 4.08559627 3.67063934 2.625 4.5 C1.40683594 5.19609375 1.40683594 5.19609375 0.1640625 5.90625 C-2 7 -2 7 -4 7 C-3.43628586 3.73045798 -2.50037734 2.17424117 0 0 Z " fill="#9A73B4" transform="translate(191,149)"/>
<path d="M0 0 C0.625 2.0625 0.625 2.0625 1 4 C-0.98 4.99 -0.98 4.99 -3 6 C-3 5.34 -3 4.68 -3 4 C-3.66 4 -4.32 4 -5 4 C-5.66 2.68 -6.32 1.36 -7 0 C-2.25 -1.125 -2.25 -1.125 0 0 Z " fill="#9A56A9" transform="translate(255,101)"/>
<path d="M0 0 C0 0.99 0 1.98 0 3 C-2.9063515 5.80255323 -3.78825048 6 -8 6 C-8 6.99 -8 7.98 -8 9 C-8.99 9 -9.98 9 -11 9 C-9.55613418 5.28720216 -7.87763608 4.0513557 -4.375 2.25 C-3.55773437 1.82203125 -2.74046875 1.3940625 -1.8984375 0.953125 C-0.95871094 0.48132813 -0.95871094 0.48132813 0 0 Z " fill="#B37DBC" transform="translate(297,81)"/>
<path d="M0 0 C1 3 1 3 0.00390625 5.48046875 C-0.47175781 6.37378906 -0.94742188 7.26710937 -1.4375 8.1875 C-1.91058594 9.08855469 -2.38367188 9.98960937 -2.87109375 10.91796875 C-3.24363281 11.60503906 -3.61617187 12.29210937 -4 13 C-4.99 12.34 -5.98 11.68 -7 11 C-7 10.01 -7 9.02 -7 8 C-6.360625 7.7525 -5.72125 7.505 -5.0625 7.25 C-2.81258459 6.18437567 -2.81258459 6.18437567 -2.25 3.875 C-2.1675 3.25625 -2.085 2.6375 -2 2 C-1.34 2 -0.68 2 0 2 C0 1.34 0 0.68 0 0 Z " fill="#6D5E9A" transform="translate(178,243)"/>
<path d="M0 0 C0.66 0.33 1.32 0.66 2 1 C1.72285156 1.60328125 1.44570312 2.2065625 1.16015625 2.828125 C0.79792969 3.62734375 0.43570313 4.4265625 0.0625 5.25 C-0.29714844 6.03890625 -0.65679687 6.8278125 -1.02734375 7.640625 C-1.90033279 9.75823698 -2.51338508 11.76669362 -3 14 C-3.66 14 -4.32 14 -5 14 C-4.03603575 8.79459302 -3.12319499 4.40086567 0 0 Z " fill="#9777B8" transform="translate(219,153)"/>
<path d="M0 0 C0.33 1.65 0.66 3.3 1 5 C0.01 5 -0.98 5 -2 5 C-2.33 4.34 -2.66 3.68 -3 3 C-3.99 3.33 -4.98 3.66 -6 4 C-6.33 3.01 -6.66 2.02 -7 1 C-3.375 -1.125 -3.375 -1.125 0 0 Z " fill="#514B8B" transform="translate(352,299)"/>
<path d="M0 0 C1.65 0 3.3 0 5 0 C6.4783226 2.95664519 6.06032783 5.74229737 6 9 C5.01 8.34 4.02 7.68 3 7 C2.63371323 5.00577205 2.29868656 3.00546689 2 1 C1.34 0.67 0.68 0.34 0 0 Z " fill="#9570B4" transform="translate(293,183)"/>
<path d="M0 0 C0.99 0.33 1.98 0.66 3 1 C3 1.66 3 2.32 3 3 C3.66 3 4.32 3 5 3 C5 3.99 5 4.98 5 6 C5.99 6.33 6.98 6.66 8 7 C9.1875 9.0625 9.1875 9.0625 10 11 C9.01 11 8.02 11 7 11 C5.17578125 8.84765625 5.17578125 8.84765625 3.3125 6.0625 C2.68988281 5.14597656 2.06726563 4.22945313 1.42578125 3.28515625 C0 1 0 1 0 0 Z " fill="#2D3773" transform="translate(202,383)"/>
<path d="M0 0 C0.66 0.33 1.32 0.66 2 1 C0.54712339 2.33927721 -0.91247259 3.67126847 -2.375 5 C-3.18710937 5.7425 -3.99921875 6.485 -4.8359375 7.25 C-7 9 -7 9 -9 9 C-9.33 8.01 -9.66 7.02 -10 6 C-9.0925 5.566875 -8.185 5.13375 -7.25 4.6875 C-4.56781551 3.29482729 -2.33860395 1.88887243 0 0 Z " fill="#2C3979" transform="translate(334,397)"/>
<path d="M0 0 C0.12375 0.639375 0.2475 1.27875 0.375 1.9375 C0.684375 2.9584375 0.684375 2.9584375 1 4 C1.66 4.33 2.32 4.66 3 5 C1.625 6.5 1.625 6.5 0 8 C-0.66 8 -1.32 8 -2 8 C-2.33 9.32 -2.66 10.64 -3 12 C-4 10 -4 10 -3.22265625 7.6171875 C-2.83980469 6.71226562 -2.45695313 5.80734375 -2.0625 4.875 C-1.68222656 3.96492188 -1.30195313 3.05484375 -0.91015625 2.1171875 C-0.60980469 1.41851562 -0.30945313 0.71984375 0 0 Z " fill="#615793" transform="translate(156,270)"/>
<path d="M0 0 C4.97093824 0.41153737 9.44508386 0.79600832 14 3 C10.59598052 4.13732426 8.22543336 3.83989957 4.75 3.0625 C3.85796875 2.86785156 2.9659375 2.67320312 2.046875 2.47265625 C1.37140625 2.31667969 0.6959375 2.16070312 0 2 C0 1.34 0 0.68 0 0 Z " fill="#6F60A2" transform="translate(290,253)"/>
<path d="M0 0 C0.66 0.33 1.32 0.66 2 1 C0.73427767 2.15147661 -0.53777906 3.29599314 -1.8125 4.4375 C-2.52019531 5.07558594 -3.22789062 5.71367187 -3.95703125 6.37109375 C-6 8 -6 8 -9 9 C-9.33 7.68 -9.66 6.36 -10 5 C-8.906875 4.731875 -7.81375 4.46375 -6.6875 4.1875 C-3.38307337 3.12336261 -2.05039578 2.65345336 0 0 Z " fill="#836BAF" transform="translate(296,197)"/>
<path d="M0 0 C0.66 0 1.32 0 2 0 C0.50902342 3.7952131 -1.75700849 5.61042731 -5 8 C-5.33 6.68 -5.66 5.36 -6 4 C-5.34 4 -4.68 4 -4 4 C-4 3.34 -4 2.68 -4 2 C-2.68 2 -1.36 2 0 2 C0 1.34 0 0.68 0 0 Z " fill="#A677BC" transform="translate(231,121)"/>
<path d="M0 0 C0.33 0.99 0.66 1.98 1 3 C-0.5967195 3.72496458 -2.20272608 4.42950397 -3.8125 5.125 C-4.70582031 5.51945312 -5.59914063 5.91390625 -6.51953125 6.3203125 C-7.33808594 6.54460937 -8.15664063 6.76890625 -9 7 C-9.99 6.34 -10.98 5.68 -12 5 C-11.30132812 4.80664062 -10.60265625 4.61328125 -9.8828125 4.4140625 C-8.97273438 4.15367187 -8.06265625 3.89328125 -7.125 3.625 C-6.22007812 3.36976563 -5.31515625 3.11453125 -4.3828125 2.8515625 C-1.85430274 2.1395685 -1.85430274 2.1395685 0 0 Z " fill="#383D79" transform="translate(287,353)"/>
<path d="M0 0 C1.32 0 2.64 0 4 0 C4 0.99 4 1.98 4 3 C4.66 3.66 5.32 4.32 6 5 C4.1875 5.6875 4.1875 5.6875 2 6 C0.25 4.5625 0.25 4.5625 -1 3 C-0.67 2.01 -0.34 1.02 0 0 Z " fill="#203B83" transform="translate(179,407)"/>
<path d="M0 0 C-3.43358947 0.92900148 -6.42779828 1.23296968 -10 1 C-10.66 0.34 -11.32 -0.32 -12 -1 C-7.85350884 -4.28263884 -4.28080229 -1.93259521 0 0 Z " fill="#4D4C8D" transform="translate(283,326)"/>
<path d="M0 0 C0.66 1.32 1.32 2.64 2 4 C-2.75 8 -2.75 8 -5 8 C-2.2 2.2 -2.2 2.2 0 0 Z " fill="#6E58B0" transform="translate(270,215)"/>
<path d="M0 0 C0.886875 0.12375 1.77375 0.2475 2.6875 0.375 C2.130625 0.601875 1.57375 0.82875 1 1.0625 C-1.94496684 2.73396766 -3.99406544 4.92776352 -6.3125 7.375 C-6.9725 7.045 -7.6325 6.715 -8.3125 6.375 C-4.12788462 0.46730769 -4.12788462 0.46730769 0 0 Z " fill="#A87DBA" transform="translate(221.3125,114.625)"/>
<path d="M0 0 C-1 3 -1 3 -4 5 C-7.1875 5.125 -7.1875 5.125 -10 5 C-3.63636364 0 -3.63636364 0 0 0 Z " fill="#B581BD" transform="translate(309,76)"/>
<path d="M0 0 C0.99 0 1.98 0 3 0 C3.33 0.99 3.66 1.98 4 3 C2.02 3.66 0.04 4.32 -2 5 C-2.66 4.01 -3.32 3.02 -4 2 C-3.34 1.67 -2.68 1.34 -2 1 C-1.34 1.33 -0.68 1.66 0 2 C0 1.34 0 0.68 0 0 Z " fill="#313E8E" transform="translate(220,368)"/>
<path d="M0 0 C3.93809611 3.76687454 3.93809611 3.76687454 4.09765625 6.9453125 C4.06510417 8.96354167 4.03255208 10.98177083 4 13 C3.34 12.67 2.68 12.34 2 12 C2.04125 11.319375 2.0825 10.63875 2.125 9.9375 C1.97450035 6.40075832 1.05624147 3.36676967 0 0 Z " fill="#3F407F" transform="translate(250,328)"/>
<path d="M0 0 C0.33 1.32 0.66 2.64 1 4 C-0.8125 4.625 -0.8125 4.625 -3 5 C-3.99 4.34 -4.98 3.68 -6 3 C-3.375 0 -3.375 0 0 0 Z " fill="#625696" transform="translate(228,266)"/>
<path d="M0 0 C-1.12073862 0.83905565 -2.24674547 1.67107831 -3.375 2.5 C-4.00148438 2.9640625 -4.62796875 3.428125 -5.2734375 3.90625 C-7 5 -7 5 -9 5 C-7.93411431 2.09303901 -7.29651501 1.15567038 -4.5 -0.3125 C-2 -1 -2 -1 0 0 Z " fill="#8D72B1" transform="translate(275,188)"/>
<path d="M0 0 C1.3921875 0.3403125 1.3921875 0.3403125 2.8125 0.6875 C2.4825 1.3475 2.1525 2.0075 1.8125 2.6875 C0.14928518 3.03765049 -1.51784549 3.36947057 -3.1875 3.6875 C-4.1775 4.3475 -5.1675 5.0075 -6.1875 5.6875 C-6.1875 2.6875 -6.1875 2.6875 -5.0625 0.9375 C-3.1875 -0.3125 -3.1875 -0.3125 0 0 Z " fill="#3A4287" transform="translate(294.1875,349.3125)"/>
<path d="M0 0 C0.93423645 3.01031744 1.04449911 3.86650268 0 7 C-2.0625 7.6875 -2.0625 7.6875 -4 8 C-3.40072174 4.64404172 -2.15377564 2.62198774 0 0 Z " fill="#3C418D" transform="translate(358,343)"/>
<path d="M0 0 C0.99 0.33 1.98 0.66 3 1 C3 3.31 3 5.62 3 8 C2.34 8 1.68 8 1 8 C0.34 5.69 -0.32 3.38 -1 1 C-0.67 0.67 -0.34 0.34 0 0 Z " fill="#6756A9" transform="translate(306,259)"/>
<path d="M0 0 C0.78375 0.185625 1.5675 0.37125 2.375 0.5625 C4.97089775 1.25962266 4.97089775 1.25962266 7 0 C7 0.99 7 1.98 7 3 C5.35 3.66 3.7 4.32 2 5 C2 4.34 2 3.68 2 3 C1.34 3 0.68 3 0 3 C0 2.01 0 1.02 0 0 Z " fill="#22347A" transform="translate(307,411)"/>
<path d="M0 0 C0.66 0.33 1.32 0.66 2 1 C2.4140625 3.06640625 2.4140625 3.06640625 2.625 5.5625 C2.69976562 6.38878906 2.77453125 7.21507812 2.8515625 8.06640625 C2.92503906 9.02353516 2.92503906 9.02353516 3 10 C1 9 1 9 -0.1875 6.6875 C-1.03624754 3.88010429 -0.99928333 2.698065 0 0 Z " fill="#313670" transform="translate(156,345)"/>
<path d="M0 0 C0.33 0.66 0.66 1.32 1 2 C-0.73397418 5.65047197 -2.19333016 7.55609075 -6 9 C-4.47291037 5.56404834 -2.40072955 2.88087546 0 0 Z " fill="#5D528E" transform="translate(212,277)"/>
<path d="M0 0 C0.268125 0.556875 0.53625 1.11375 0.8125 1.6875 C2.10122647 4.19712523 3.52926478 6.59334236 5 9 C4.01 9.495 4.01 9.495 3 10 C-0.22265625 4.82421875 -0.22265625 4.82421875 -1 3 C-0.67 2.01 -0.34 1.02 0 0 Z " fill="#665995" transform="translate(235,260)"/>
<path d="M0 0 C0.99 0 1.98 0 3 0 C3 2.31 3 4.62 3 7 C1.68 5.68 0.36 4.36 -1 3 C-0.67 2.01 -0.34 1.02 0 0 Z " fill="#A270B8" transform="translate(231,135)"/>
<path d="M0 0 C0.33 0.66 0.66 1.32 1 2 C0.21654285 3.17219543 -0.57702836 4.33763668 -1.375 5.5 C-1.81585938 6.1496875 -2.25671875 6.799375 -2.7109375 7.46875 C-3.13632813 7.9740625 -3.56171875 8.479375 -4 9 C-4.66 9 -5.32 9 -6 9 C-4.47291037 5.56404834 -2.40072955 2.88087546 0 0 Z " fill="#A27BBA" transform="translate(212,122)"/>
<path d="M0 0 C1.65 0.33 3.3 0.66 5 1 C4.34 2.32 3.68 3.64 3 5 C0 5 0 5 -2 4 C-2 3.34 -2 2.68 -2 2 C-1.34 2 -0.68 2 0 2 C0 1.34 0 0.68 0 0 Z " fill="#C578CA" transform="translate(313,74)"/>
<path d="M0 0 C1.98 0.99 1.98 0.99 4 2 C4 3.32 4 4.64 4 6 C3.01 6.33 2.02 6.66 1 7 C0.67 4.69 0.34 2.38 0 0 Z " fill="#263C8B" transform="translate(248,401)"/>
<path d="M0 0 C0.66 0 1.32 0 2 0 C1.34 3.3 0.68 6.6 0 10 C-0.66 9.34 -1.32 8.68 -2 8 C-1.7578125 6.0546875 -1.7578125 6.0546875 -1.125 3.875 C-0.92132813 3.15054687 -0.71765625 2.42609375 -0.5078125 1.6796875 C-0.34023438 1.12539063 -0.17265625 0.57109375 0 0 Z " fill="#313E85" transform="translate(346,376)"/>
<path d="M0 0 C2.475 0.99 2.475 0.99 5 2 C4.67 3.32 4.34 4.64 4 6 C3.01 5.67 2.02 5.34 1 5 C0.67 3.35 0.34 1.7 0 0 Z " fill="#55518B" transform="translate(250,309)"/>
<path d="M0 0 C0 0.66 0 1.32 0 2 C-1.62626404 3.38232443 -3.2925002 4.71937515 -5 6 C-5.99 5.01 -6.98 4.02 -8 3 C-2.25 0 -2.25 0 0 0 Z " fill="#4F4C8A" transform="translate(344,302)"/>
<path d="M0 0 C0.66 0.33 1.32 0.66 2 1 C2 1.66 2 2.32 2 3 C1.34 3 0.68 3 0 3 C-0.33 4.65 -0.66 6.3 -1 8 C-3 5 -3 5 -4 2 C-3.01 2 -2.02 2 -1 2 C-0.67 1.34 -0.34 0.68 0 0 Z " fill="#8D5C9B" transform="translate(238,115)"/>
<path d="M0 0 C2.97 0.495 2.97 0.495 6 1 C4.515 3.475 4.515 3.475 3 6 C2.67 5.34 2.34 4.68 2 4 C1.34 4 0.68 4 0 4 C0 2.68 0 1.36 0 0 Z " fill="#C380CD" transform="translate(298,80)"/>
<path d="M0 0 C0.99 0 1.98 0 3 0 C3 2.31 3 4.62 3 7 C2.01 6.67 1.02 6.34 0 6 C0 4.02 0 2.04 0 0 Z " fill="#2F3C91" transform="translate(216,375)"/>
<path d="M0 0 C1.65 0.33 3.3 0.66 5 1 C4.34 2.32 3.68 3.64 3 5 C1.68 4.34 0.36 3.68 -1 3 C-0.67 2.01 -0.34 1.02 0 0 Z " fill="#574E95" transform="translate(251,296)"/>
<path d="M0 0 C-4.625 4 -4.625 4 -8 4 C-8 3.34 -8 2.68 -8 2 C-3.61016949 -1.20338983 -3.61016949 -1.20338983 0 0 Z " fill="#6F5F98" transform="translate(190,234)"/>
<path d="M0 0 C0.33 0.66 0.66 1.32 1 2 C-0.8125 5 -0.8125 5 -3 8 C-3.99 8 -4.98 8 -6 8 C-4.02 5.36 -2.04 2.72 0 0 Z " fill="#9B72B1" transform="translate(228,139)"/>
<path d="" fill="#000000" transform="translate(0,0)"/>
</svg>
