<svg data-component="icon" data-fancy-icon-theme="agentic-ai-2025" className="fancy-icon icons_large__3xBUy" viewBox="0 0 32 32" focusable={false} aria-hidden="true" fill="currentColor"><path d="M15.291 0.671991L15.355 0.474657C15.5524 -0.160009 16.4484 -0.160009 16.651 0.474657L16.715 0.671991C18.907 7.64266 24.363 13.104 31.3337 15.2907L31.531 15.3547C32.1657 15.552 32.1657 16.448 31.531 16.6507L31.3337 16.7147C24.363 18.9067 18.9017 24.3627 16.715 31.3333L16.651 31.5307C16.4537 32.1653 15.5577 32.1653 15.355 31.5307L15.291 31.3333C13.099 24.3627 7.64302 18.9013 0.672357 16.7147L0.475023 16.6507C-0.159643 16.4533 -0.159643 15.5573 0.475023 15.3547L0.672357 15.2907C7.64302 13.104 13.1044 7.64266 15.291 0.671991Z" fill="#e3a5f8ff" /></svg>