<?xml version="1.0" encoding="UTF-8"?>
<svg version="1.1" xmlns="http://www.w3.org/2000/svg" width="512" height="512">
<path d="M0 0 C1.01790619 0.00215515 2.03581238 0.0043103 3.08456421 0.00653076 C17.69363523 0.05620146 32.02575853 0.30709809 46.375 3.3125 C47.34985352 3.51117676 48.32470703 3.70985352 49.32910156 3.91455078 C96.48330175 13.7783642 139.60404351 34.80004583 174.75390625 67.90234375 C177.32342207 70.32395548 177.32342207 70.32395548 180.015625 72.40625 C182.13784837 74.12089404 183.81400162 75.79388239 185.5625 77.875 C188.31391441 81.10672598 191.1583 84.21747916 194.0625 87.3125 C235.60851922 133.0696891 256.92079021 194.67137392 256.6875 255.9375 C256.68534485 256.95540619 256.6831897 257.97331238 256.68096924 259.02206421 C256.63129854 273.63113523 256.38040191 287.96325853 253.375 302.3125 C253.07698486 303.77478027 253.07698486 303.77478027 252.77294922 305.26660156 C242.65232806 353.6484774 220.7358123 397.63678269 186.375 433.3125 C185.74287598 433.97185547 185.11075195 434.63121094 184.45947266 435.31054688 C175.31502521 444.79880305 166.01765991 453.5387044 155.375 461.3125 C154.22394983 462.17056152 153.07290823 463.02863451 151.921875 463.88671875 C143.73224019 469.92427396 135.22961724 475.30707302 126.375 480.3125 C125.66778809 480.7146875 124.96057617 481.116875 124.23193359 481.53125 C101.09654164 494.5566741 75.92537591 503.30551461 49.9375 508.625 C49.21860596 508.77235596 48.49971191 508.91971191 47.7590332 509.0715332 C33.08339502 511.86090125 18.55831162 512.66142619 3.64770508 512.62817383 C0.70811513 512.6250221 -2.2304558 512.64854926 -5.16992188 512.67382812 C-18.54306192 512.71848737 -31.43916711 511.51301542 -44.625 509.3125 C-46.33055054 509.03031616 -46.33055054 509.03031616 -48.07055664 508.74243164 C-91.33802759 500.97044532 -132.38793216 480.98345309 -165.625 452.3125 C-166.37007813 451.67828125 -167.11515625 451.0440625 -167.8828125 450.390625 C-181.38779833 438.57948485 -194.05918743 425.82889772 -204.625 411.3125 C-205.48149066 410.16255169 -206.33826433 409.01281411 -207.1953125 407.86328125 C-213.23534209 399.67315742 -218.61867614 391.16870382 -223.625 382.3125 C-224.0271875 381.60528809 -224.429375 380.89807617 -224.84375 380.16943359 C-237.8691741 357.03404164 -246.61801461 331.86287591 -251.9375 305.875 C-252.08485596 305.15610596 -252.23221191 304.43721191 -252.3840332 303.6965332 C-255.35789088 288.05024391 -255.99800362 272.57681954 -255.9375 256.6875 C-255.93534485 255.66959381 -255.9331897 254.65168762 -255.93096924 253.60293579 C-255.88129854 238.99386477 -255.63040191 224.66174147 -252.625 210.3125 C-252.42632324 209.33764648 -252.22764648 208.36279297 -252.02294922 207.35839844 C-241.90232806 158.9765226 -219.9858123 114.98821731 -185.625 79.3125 C-184.99287598 78.65314453 -184.36075195 77.99378906 -183.70947266 77.31445312 C-174.56502521 67.82619695 -165.26765991 59.0862956 -154.625 51.3125 C-153.47394983 50.45443848 -152.32290823 49.59636549 -151.171875 48.73828125 C-142.98224019 42.70072604 -134.47961724 37.31792698 -125.625 32.3125 C-124.91778809 31.9103125 -124.21057617 31.508125 -123.48193359 31.09375 C-100.34654164 18.0683259 -75.17537591 9.31948539 -49.1875 4 C-48.46860596 3.85264404 -47.74971191 3.70528809 -47.0090332 3.5534668 C-31.36274391 0.57960912 -15.88931954 -0.06050362 0 0 Z " fill="#B399C9" transform="translate(255.625,-0.3125)"/>
<path d="M0 0 C1.01790619 0.00215515 2.03581238 0.0043103 3.08456421 0.00653076 C17.69363523 0.05620146 32.02575853 0.30709809 46.375 3.3125 C47.34985352 3.51117676 48.32470703 3.70985352 49.32910156 3.91455078 C96.48330175 13.7783642 139.60404351 34.80004583 174.75390625 67.90234375 C177.32342207 70.32395548 177.32342207 70.32395548 180.015625 72.40625 C182.13784837 74.12089404 183.81400162 75.79388239 185.5625 77.875 C188.31391441 81.10672598 191.1583 84.21747916 194.0625 87.3125 C235.60851922 133.0696891 256.92079021 194.67137392 256.6875 255.9375 C256.68534485 256.95540619 256.6831897 257.97331238 256.68096924 259.02206421 C256.63129854 273.63113523 256.38040191 287.96325853 253.375 302.3125 C253.07698486 303.77478027 253.07698486 303.77478027 252.77294922 305.26660156 C242.65232806 353.6484774 220.7358123 397.63678269 186.375 433.3125 C185.74287598 433.97185547 185.11075195 434.63121094 184.45947266 435.31054688 C175.31502521 444.79880305 166.01765991 453.5387044 155.375 461.3125 C154.22394983 462.17056152 153.07290823 463.02863451 151.921875 463.88671875 C143.73224019 469.92427396 135.22961724 475.30707302 126.375 480.3125 C125.66778809 480.7146875 124.96057617 481.116875 124.23193359 481.53125 C101.09654164 494.5566741 75.92537591 503.30551461 49.9375 508.625 C49.21860596 508.77235596 48.49971191 508.91971191 47.7590332 509.0715332 C33.08339502 511.86090125 18.55831162 512.66142619 3.64770508 512.62817383 C0.70811513 512.6250221 -2.2304558 512.64854926 -5.16992188 512.67382812 C-18.54306192 512.71848737 -31.43916711 511.51301542 -44.625 509.3125 C-46.33055054 509.03031616 -46.33055054 509.03031616 -48.07055664 508.74243164 C-91.33802759 500.97044532 -132.38793216 480.98345309 -165.625 452.3125 C-166.37007813 451.67828125 -167.11515625 451.0440625 -167.8828125 450.390625 C-181.38779833 438.57948485 -194.05918743 425.82889772 -204.625 411.3125 C-205.48149066 410.16255169 -206.33826433 409.01281411 -207.1953125 407.86328125 C-213.23534209 399.67315742 -218.61867614 391.16870382 -223.625 382.3125 C-224.0271875 381.60528809 -224.429375 380.89807617 -224.84375 380.16943359 C-237.8691741 357.03404164 -246.61801461 331.86287591 -251.9375 305.875 C-252.08485596 305.15610596 -252.23221191 304.43721191 -252.3840332 303.6965332 C-255.35789088 288.05024391 -255.99800362 272.57681954 -255.9375 256.6875 C-255.93534485 255.66959381 -255.9331897 254.65168762 -255.93096924 253.60293579 C-255.88129854 238.99386477 -255.63040191 224.66174147 -252.625 210.3125 C-252.42632324 209.33764648 -252.22764648 208.36279297 -252.02294922 207.35839844 C-241.90232806 158.9765226 -219.9858123 114.98821731 -185.625 79.3125 C-184.99287598 78.65314453 -184.36075195 77.99378906 -183.70947266 77.31445312 C-174.56502521 67.82619695 -165.26765991 59.0862956 -154.625 51.3125 C-153.47394983 50.45443848 -152.32290823 49.59636549 -151.171875 48.73828125 C-142.98224019 42.70072604 -134.47961724 37.31792698 -125.625 32.3125 C-124.91778809 31.9103125 -124.21057617 31.508125 -123.48193359 31.09375 C-100.34654164 18.0683259 -75.17537591 9.31948539 -49.1875 4 C-48.46860596 3.85264404 -47.74971191 3.70528809 -47.0090332 3.5534668 C-31.36274391 0.57960912 -15.88931954 -0.06050362 0 0 Z M-38.625 56.3125 C-39.44242676 56.48410645 -40.25985352 56.65571289 -41.10205078 56.83251953 C-95.35760845 68.56430099 -141.27296381 101.00658995 -171.625 147.3125 C-174.88330315 152.50946213 -177.80903318 157.86551065 -180.625 163.3125 C-181.00253418 164.03630859 -181.38006836 164.76011719 -181.76904297 165.50585938 C-206.68348583 213.85136947 -208.83988633 269.98033591 -192.625 321.3125 C-175.0993011 373.60319887 -136.9642485 414.9710531 -88.05712891 439.60595703 C-47.69413197 459.35640945 -1.54044036 464.31731877 42.375 455.3125 C43.13844727 455.15765137 43.90189453 455.00280273 44.68847656 454.84326172 C75.34684955 448.40799654 105.93100816 434.21893537 129.375 413.3125 C130.24511719 412.5390625 131.11523438 411.765625 132.01171875 410.96875 C133.71370522 409.44230474 135.40937511 407.90877755 137.09765625 406.3671875 C139.0487616 404.60684202 141.03513544 402.92065677 143.0625 401.25 C146.92483038 397.95354593 150.11693826 394.19458566 153.375 390.3125 C154.138125 389.43722656 154.90125 388.56195313 155.6875 387.66015625 C171.36648516 369.40883759 182.58948889 348.63001359 191.375 326.3125 C191.81803467 325.18787354 191.81803467 325.18787354 192.27001953 324.04052734 C198.98641755 306.56204258 203.09387081 287.03570398 203.375 268.3125 C203.39933105 267.38453613 203.42366211 266.45657227 203.44873047 265.50048828 C204.76550715 212.16694323 188.56125747 162.79442216 153.375 122.3125 C152.89675781 121.75981445 152.41851562 121.20712891 151.92578125 120.63769531 C118.44771964 82.25983337 69.12181861 57.68873297 18.375 53.3125 C12.50361707 52.97429536 6.62919186 52.97162402 0.75 53 C-0.43154663 53.00273422 -0.43154663 53.00273422 -1.63696289 53.00552368 C-14.17130772 53.05421338 -26.33201516 53.68360172 -38.625 56.3125 Z " fill="#945AA4" transform="translate(255.625,-0.3125)"/>
<path d="M0 0 C1.16912933 0.00081573 1.16912933 0.00081573 2.36187744 0.00164795 C16.3847297 0.04629193 29.85527826 1.26477908 43.5625 4.375 C44.50722168 4.58930664 45.45194336 4.80361328 46.42529297 5.02441406 C91.68742143 15.67159169 138.27500424 43.01718512 164.5625 82.375 C164.5625 83.365 164.5625 84.355 164.5625 85.375 C163.78463135 85.46998779 163.0067627 85.56497559 162.20532227 85.6628418 C120.21190859 90.85615571 81.24809968 100.50972265 43.5625 120.375 C41.89380859 121.23351562 41.89380859 121.23351562 40.19140625 122.109375 C26.8795544 129.07692291 10.84449001 137.65632324 0.4140625 148.63671875 C-4.28381325 151.50049232 -9.10874577 150.95916304 -14.5 150.875 C-15.75079346 150.86509033 -17.00158691 150.85518066 -18.2902832 150.8449707 C-34.65760891 150.59986683 -50.95622924 148.80457038 -67.23144531 147.18153381 C-73.34123801 146.57336947 -79.45314615 146.0053572 -85.5703125 145.4765625 C-86.35853897 145.40840836 -87.14676544 145.34025421 -87.95887756 145.27003479 C-90.93758805 145.01349485 -93.91643761 144.75860875 -96.89535522 144.50448608 C-98.88481327 144.33415347 -100.87405275 144.16127391 -102.86328125 143.98828125 C-103.97098877 143.89329346 -105.07869629 143.79830566 -106.2199707 143.70043945 C-109.64292172 143.35422246 -113.0331755 142.869548 -116.4375 142.375 C-126.126303 141.62115181 -130.87703439 142.59078386 -138.375 148.8125 C-141.4556141 152.8009772 -141.05879516 157.47821762 -140.85546875 162.30859375 C-140.11752806 167.72245767 -137.94765545 170.21934622 -133.71679688 173.45703125 C-130.12192767 175.5595694 -127.71340067 176.07839177 -123.59375 176.5 C-122.59452011 176.60834923 -122.59452011 176.60834923 -121.57510376 176.71888733 C-119.36392187 176.95384181 -117.15112373 177.16440523 -114.9375 177.375 C-113.37211046 177.53715067 -111.80684568 177.70050979 -110.24169922 177.86499023 C-100.85095764 178.83277324 -91.4475594 179.63702553 -82.0390625 180.41015625 C-81.00082336 180.49647308 -79.96258423 180.58278992 -78.8928833 180.67172241 C-73.76248209 181.09733193 -68.6317379 181.50860628 -63.49804688 181.89257812 C-61.60543871 182.04389563 -59.71285914 182.19557122 -57.8203125 182.34765625 C-56.52874741 182.43660912 -56.52874741 182.43660912 -55.21109009 182.52735901 C-50.31293606 182.93540073 -46.75100048 183.80897772 -42.4375 186.375 C-43.99844919 189.9643484 -46.18867819 192.55720473 -48.75 195.5 C-60.55758382 209.41592503 -70.42102748 224.53586768 -79.4375 240.375 C-79.84452148 241.08446777 -80.25154297 241.79393555 -80.67089844 242.52490234 C-101.17788872 278.5969217 -111.29308814 318.51208038 -116.4375 359.375 C-116.54497559 360.22545898 -116.65245117 361.07591797 -116.76318359 361.95214844 C-116.99019031 363.75948636 -117.21428626 365.56718971 -117.4375 367.375 C-146.02518802 357.47140808 -169.63481222 318.20128111 -182.40917969 292.69799805 C-195.91043367 264.86262051 -202.89917692 234.65782287 -202.75 203.75 C-202.74817719 202.96230225 -202.74635437 202.17460449 -202.74447632 201.36303711 C-202.69578662 188.82869228 -202.06639828 176.66798484 -199.4375 164.375 C-199.26589355 163.55757324 -199.09428711 162.74014648 -198.91748047 161.89794922 C-188.92063769 115.66590151 -163.65096654 73.77761861 -126.4375 44.375 C-125.47328125 43.58222656 -124.5090625 42.78945312 -123.515625 41.97265625 C-88.8599913 14.13380329 -44.16111105 -0.11734573 0 0 Z " fill="#C2ADD4" transform="translate(255.4375,52.625)"/>
<path d="M0 0 C2.0026457 0.20245054 4.00529672 0.40485177 6.00808716 0.60586548 C7.44977896 0.75057627 8.89140778 0.89591564 10.33297729 1.0418396 C20.27888107 2.04501177 30.23369164 2.9543356 40.1875 3.875 C42.04240531 4.04713347 43.89730453 4.2193326 45.75219727 4.39160156 C51.89782804 4.96299681 51.89782804 4.96299681 58.04411316 5.52728271 C59.71413285 5.68268687 61.38346417 5.84559175 63.05220032 6.01422119 C74.71968648 7.16036706 86.40951925 7.17724944 98.125 7.25 C100.10131409 7.2626741 100.10131409 7.2626741 102.11755371 7.27560425 C135.15419616 7.41844894 167.94558325 4.27013772 200.78468323 0.93043518 C208.23898821 0.17948137 215.69591977 -0.46470712 223.17285156 -0.94555664 C223.92098492 -0.99959624 224.66911827 -1.05363585 225.43992233 -1.10931301 C231.2266546 -1.44891553 235.8593151 -0.96517074 240.4375 2.75 C244.80495246 7.43624461 246.8684358 12.0984798 246.78515625 18.55859375 C245.9625455 23.74381431 242.64276827 27.60499514 238.9375 31.125 C234.22620275 34.18734321 230.10514809 35.0555431 224.52685547 35.49609375 C223.51350883 35.57949509 223.51350883 35.57949509 222.47969055 35.6645813 C221.01879594 35.78374708 219.55759997 35.8992634 218.09615707 36.01150513 C215.77336661 36.18990558 213.45151499 36.37783777 211.12966919 36.56811523 C207.02776905 36.9026806 202.92524665 37.22877342 198.82244873 37.55212402 C192.27807385 38.06806069 185.73433581 38.59140462 179.19137955 39.12503052 C176.92146475 39.30812199 174.65108714 39.48428126 172.38058472 39.65991211 C156.81240736 40.16207475 156.81240736 40.16207475 143.4375 46.75 C138.63976351 54.02992923 138.89915115 60.71287306 139.0625 69.25 C139.06378906 70.53003906 139.06507813 71.81007813 139.06640625 73.12890625 C139.12674216 79.61166405 139.28896917 85.60785509 141.4375 91.75 C141.71480957 92.54857422 141.99211914 93.34714844 142.27783203 94.16992188 C143.37607046 97.21219975 144.52656496 100.23108222 145.6875 103.25 C146.14640625 104.45197021 146.6053125 105.65394043 147.078125 106.89233398 C153.78932538 124.41525873 160.69576571 141.86413675 167.57452393 159.32174683 C168.48111603 161.62545539 169.38538379 163.93008006 170.28729248 166.23562622 C172.40961332 171.65242616 174.55283781 177.05743508 176.78231812 182.43095875 C177.56801307 184.32827608 178.34572507 186.22867567 179.12109375 188.13023376 C180.09385854 190.50949051 181.08120474 192.88286005 182.0859375 195.24879456 C185.35141604 203.29993336 187.12966251 210.67351247 184.3125 219.125 C181.01174656 223.74605481 176.9794208 227.2631432 171.4375 228.75 C165.61405367 229.40925808 161.15251295 228.14286499 156.4375 224.75 C153.02653557 220.9732648 151.06423451 217.0309171 149.21484375 212.34765625 C148.91690918 211.61386246 148.61897461 210.88006866 148.31201172 210.1240387 C147.3254242 207.6898493 146.35042013 205.25118323 145.375 202.8125 C144.67945248 201.09188637 143.98289781 199.37167958 143.28540039 197.65185547 C142.17709015 194.9189254 141.06937684 192.18577034 139.96458435 189.45141602 C135.90139692 179.39879014 131.75817794 169.37954796 127.6111145 159.36129761 C126.02084801 155.5194132 124.43219727 151.67686327 122.84474182 147.83381653 C122.10030189 146.03365503 121.35427698 144.23414805 120.60655212 142.43534851 C118.85418022 138.21428274 117.12901676 133.98637394 115.46533203 129.72949219 C115.15431046 128.94399994 114.84328888 128.15850769 114.52284241 127.34921265 C113.94608464 125.88897243 113.37866171 124.42499408 112.82273865 122.95669556 C111.31836781 119.17390801 110.07740283 116.71797502 106.4375 114.75 C103.48029372 114.08319632 103.48029372 114.08319632 100.4375 114.75 C95.70495217 118.60348483 93.82841755 122.72336054 91.6796875 128.24609375 C91.33859451 129.09136627 90.99750153 129.93663879 90.64607239 130.80752563 C89.52336343 133.59638186 88.41824287 136.39187894 87.3125 139.1875 C86.52857844 141.14113767 85.74315262 143.09417234 84.95629883 145.04663086 C83.72325717 148.10714908 82.49132807 151.16807529 81.26405334 154.23091125 C77.03514533 164.78460364 72.71142962 175.29842551 68.36749268 185.8052063 C67.14902008 188.75436249 65.93431523 191.7050475 64.72021484 194.65600586 C52.89302084 223.35722029 52.89302084 223.35722029 45.0625 227.5625 C40.0240324 229.21303249 36.40481656 229.4325384 31.375 227.6875 C27.17171062 224.91511765 23.70520882 221.28541764 21.4375 216.75 C20.66728812 208.42803171 21.90677019 201.85112129 25.109375 194.21484375 C25.49929123 193.23754807 25.88920746 192.26025238 26.29093933 191.25334167 C27.57102187 188.05680169 28.87918206 184.87257439 30.1875 181.6875 C31.09013929 179.44667258 31.99057515 177.20495645 32.88891602 174.96240234 C34.76725645 170.27827339 36.65513419 165.59815397 38.54931641 160.92041016 C42.80772269 150.37921538 46.93855156 139.78803648 51.07556152 129.19876099 C52.74914222 124.91800256 54.42881286 120.63964718 56.10873413 116.3613739 C57.23343686 113.49472272 58.35516928 110.62692701 59.47607422 107.75878906 C60.66571728 104.71502407 61.86356902 101.67491941 63.07470703 98.63964844 C63.52571777 97.49786133 63.97672852 96.35607422 64.44140625 95.1796875 C64.81209229 94.25140137 65.18277832 93.32311523 65.56469727 92.36669922 C68.05325342 84.90590344 67.69203667 77.14981505 67.75 69.375 C67.77900391 68.0859375 67.80800781 66.796875 67.83789062 65.46875 C67.88718234 58.08257631 67.5967672 52.95149732 63.4375 46.75 C58.82763156 43.08092104 55.04928521 41.70750341 49.26123047 41.22509766 C48.20096649 41.1347525 47.14070251 41.04440735 46.04830933 40.95132446 C44.89541412 40.85652802 43.74251892 40.76173157 42.5546875 40.6640625 C40.08072826 40.4531356 37.60676996 40.24219771 35.1328125 40.03125 C31.25921762 39.70546079 27.38550718 39.38109644 23.51171875 39.05761719 C10.14553508 37.93682868 -3.21878735 36.77763978 -16.5546875 35.3359375 C-17.58143585 35.23656891 -18.6081842 35.13720032 -19.66604614 35.03482056 C-26.91664495 34.20690863 -30.95277774 32.71238742 -35.875 27.125 C-39.66570954 21.78992732 -39.46983127 16.11619315 -38.5625 9.75 C-36.20460972 5.33406675 -32.83427981 2.69644079 -28.875 -0.25 C-19.80573287 -2.98789196 -9.26951486 -0.97632307 0 0 Z " fill="#894B9D" transform="translate(152.5625,195.25)"/>
<path d="M0 0 C1.98829653 1.80849107 3.94147302 3.64467862 5.890625 5.49609375 C7.78710358 7.26669986 9.67310694 8.92754544 11.67578125 10.56640625 C13.93373865 12.46087255 15.83292671 14.23497052 17.7265625 16.46875 C18.31050781 17.15582031 18.89445312 17.84289062 19.49609375 18.55078125 C20.50736328 19.74767578 20.50736328 19.74767578 21.5390625 20.96875 C22.38855469 21.94199219 23.23804688 22.91523437 24.11328125 23.91796875 C62.47315715 68.06942048 81.11976054 126.67154836 77.07495117 184.85864258 C73.53742965 228.17105086 57.65630208 269.93478208 30.5390625 303.96875 C29.7553125 304.95746094 28.9715625 305.94617188 28.1640625 306.96484375 C16.34347412 321.54632802 2.84358629 335.07025993 -12.4609375 345.96875 C-13.10369629 346.43410156 -13.74645508 346.89945312 -14.40869141 347.37890625 C-62.42582316 381.84920901 -122.17769931 395.50938387 -180.3984375 386.0390625 C-226.67300647 377.88595923 -267.4087799 356.0209076 -300.4609375 322.96875 C-301.2653125 322.21078125 -302.0696875 321.4528125 -302.8984375 320.671875 C-342.10018708 283.14337082 -363.16100981 226.32759227 -364.5859375 172.7265625 C-365.60412964 116.17497315 -345.03654879 59.7844011 -305.93359375 18.6171875 C-304.16298764 16.72070892 -302.50214206 14.83470556 -300.86328125 12.83203125 C-298.3723606 9.86317786 -295.79256215 7.48528714 -292.84765625 4.9921875 C-291.14010199 3.54453921 -289.4577713 2.06692855 -287.79296875 0.5703125 C-266.08471943 -18.75647166 -239.90124325 -32.77112244 -212.4609375 -42.03125 C-211.72713867 -42.27955566 -210.99333984 -42.52786133 -210.23730469 -42.78369141 C-139.38396078 -66.24430987 -55.87263049 -49.779193 0 0 Z M-182.4609375 -32.03125 C-183.27836426 -31.85964355 -184.09579102 -31.68803711 -184.93798828 -31.51123047 C-239.19354595 -19.77944901 -285.10890131 12.66283995 -315.4609375 58.96875 C-318.71924065 64.16571213 -321.64497068 69.52176065 -324.4609375 74.96875 C-324.83847168 75.69255859 -325.21600586 76.41636719 -325.60498047 77.16210938 C-350.51942333 125.50761947 -352.67582383 181.63658591 -336.4609375 232.96875 C-318.9352386 285.25944887 -280.800186 326.6273031 -231.89306641 351.26220703 C-191.53006947 371.01265945 -145.37637786 375.97356877 -101.4609375 366.96875 C-100.69749023 366.81390137 -99.93404297 366.65905273 -99.14746094 366.49951172 C-68.48908795 360.06424654 -37.90492934 345.87518537 -14.4609375 324.96875 C-13.59082031 324.1953125 -12.72070312 323.421875 -11.82421875 322.625 C-10.12223228 321.09855474 -8.42656239 319.56502755 -6.73828125 318.0234375 C-4.7871759 316.26309202 -2.80080206 314.57690677 -0.7734375 312.90625 C3.08889288 309.60979593 6.28100076 305.85083566 9.5390625 301.96875 C10.3021875 301.09347656 11.0653125 300.21820313 11.8515625 299.31640625 C27.53054766 281.06508759 38.75355139 260.28626359 47.5390625 237.96875 C47.98209717 236.84412354 47.98209717 236.84412354 48.43408203 235.69677734 C55.15048005 218.21829258 59.25793331 198.69195398 59.5390625 179.96875 C59.56339355 179.04078613 59.58772461 178.11282227 59.61279297 177.15673828 C60.92956965 123.82319323 44.72531997 74.45067216 9.5390625 33.96875 C9.06082031 33.41606445 8.58257812 32.86337891 8.08984375 32.29394531 C-25.38821786 -6.08391663 -74.71411889 -30.65501703 -125.4609375 -35.03125 C-131.33232043 -35.36945464 -137.20674564 -35.37212598 -143.0859375 -35.34375 C-144.26748413 -35.34101578 -144.26748413 -35.34101578 -145.47290039 -35.33822632 C-158.00724522 -35.28953662 -170.16795266 -34.66014828 -182.4609375 -32.03125 Z " fill="#894B9D" transform="translate(399.4609375,88.03125)"/>
<path d="M0 0 C1.31726074 0.00749268 1.31726074 0.00749268 2.66113281 0.01513672 C15.81933997 0.36650689 25.52213747 6.37368551 34.4375 15.6875 C43.2568807 25.93048152 44.78511391 36.44032798 44.25 49.5 C43.16154867 60.90197375 37.11949407 70.65704026 28.91015625 78.37109375 C24.98841753 81.50963649 20.89035178 83.62826146 16.25 85.5 C15.38117188 85.85835938 14.51234375 86.21671875 13.6171875 86.5859375 C4.10194055 90.26014177 -6.56642847 89.25065379 -15.93359375 85.7578125 C-29.29807538 79.78920905 -37.38523145 69.90414634 -42.75 56.5 C-45.72208581 43.3156891 -44.09114646 31.14213404 -36.9375 19.75 C-31.69971909 12.41710673 -25.98763358 7.25255695 -17.75 3.5 C-17.18104004 3.23960938 -16.61208008 2.97921875 -16.02587891 2.7109375 C-10.65132554 0.45193083 -5.79833365 -0.04340403 0 0 Z " fill="#894B9D" transform="translate(255.75,79.5)"/>
</svg>

